<svg id="_ëîé_1" data-name="‘ëîé_1" xmlns="http://www.w3.org/2000/svg" viewBox="0 0 2914.58 1709.16"><defs><style>.cls-1{fill:#e9faff;}.cls-2{fill:#afcdfb;}.cls-3{fill:#f8fcff;}.cls-4{fill:#ffcf83;}.cls-5{fill:#ed7d2b;}.cls-32,.cls-6{fill:#82b378;}.cls-7,.cls-8{fill:#a8d29f;}.cls-32,.cls-8{opacity:0.5;}.cls-14,.cls-9{fill:#f99746;}.cls-9{opacity:0.4;}.cls-10{fill:#fff;}.cls-11{fill:#1a2a4f;}.cls-12{fill:#2c3a64;}.cls-13{fill:#6b8764;}.cls-15{fill:#506849;}.cls-16{fill:#f9ddbf;}.cls-17{fill:#d4e4f8;}.cls-18{fill:#ffb27d;}.cls-19{fill:#233862;}.cls-20{fill:#163560;}.cls-21{fill:#edbd77;}.cls-22{fill:#e8945b;}.cls-23{fill:#ebf3fa;}.cls-24{fill:#060633;}.cls-25{fill:#ffdca9;}.cls-26{fill:#fca56b;}.cls-27{fill:#e2af64;}.cls-28{fill:#ed985f;}.cls-29{fill:#fff2e9;}.cls-30{fill:#101f3d;}.cls-31{fill:#1c2b51;}</style></defs><path class="cls-1" d="M3067.32,1060.93a488.25,488.25,0,0,1-9.5,76.65c-11,53.66-31,104.85-58.94,153.41q-7.61,13.2-16,26.14-14,21.57-30,42.38c-234.77,304.17-799.95,487.24-1421.46,487.24-475.87,0-870.76-107.2-1113.93-294q-20.93-16-40.33-32.9c-81.49-70.74-142.64-151.67-180.14-241.46q-1.58-3.75-3.09-7.53-6.74-16.86-12.4-34.12a551.81,551.81,0,0,1-18.42-72.86h0a575.16,575.16,0,0,1-9.16-102.91c0-479.4,376.71-1115.6,1456.71-868C2386.25,370.67,3101.2,299.62,3067.32,1060.93Z" transform="translate(-153.9 -137.59)"/><path class="cls-2" d="M3057.82,1137.59c-11,53.65-31,104.84-58.94,153.4a612.33,612.33,0,0,1-46,68.52C2409.15,1394.76,931.63,1490,377.13,1519.8c-83.76-72.7-146-156.17-183.23-249a551.91,551.91,0,0,1-30.82-107c1.75,0,157.62-2.83,387.56,35.43,231.24,38.49,1442.09-57,1702.77-35.49C2463.14,1181.08,2863.41,1125.31,3057.82,1137.59Z" transform="translate(-153.9 -137.59)"/><path class="cls-3" d="M1666.68,564.45s29.13-77.93,98.77-69.27c0,0,101.11-129.9,208.93-17.32,0,0,114.61-27.9,199.49,24.15,56.59,34.7,75.28,71.1,75.28,71.1Z" transform="translate(-153.9 -137.59)"/><path class="cls-3" d="M1591.33,381.78s11.3-31.63,38.34-28.11c0,0,39.25-52.72,81.11-7,0,0,44.5-11.32,77.45,9.8,22,14.08,29.23,28.85,29.23,28.85Z" transform="translate(-153.9 -137.59)"/><path class="cls-4" d="M2998.88,1291q-9.16,15.93-19.48,31.47c-216.24,326.29-801.65,524.29-1448,524.29-3,0-5.94,0-8.9,0-455.33-1.27-835.76-101-1079-274.72q-4.55-3.23-9-6.52a859.65,859.65,0,0,1-76.56-62.89,711,711,0,0,1-92.75-103.7,592.07,592.07,0,0,1-71.26-128.07c299.13-10.3,1184.69-37.87,1993.84-34C2582.8,1238.63,2836.54,1262.7,2998.88,1291Z" transform="translate(-153.9 -137.59)"/><path class="cls-5" d="M758.85,622.15c11.3-17.64,12.07-41.85,8.68-70.49a120.24,120.24,0,0,0-10.15-36.43l-4.56,1.65c.22.61,21.8,61.72-2.57,99.76Z" transform="translate(-153.9 -137.59)"/><path class="cls-5" d="M766.18,564.52l.78-10.18c-26.8-2.06-51.68-11.77-66.37-32.35a119.54,119.54,0,0,1-15.8-31l-4.48.91a98.58,98.58,0,0,0,15.82,34.25C707.49,542.08,728.87,561.66,766.18,564.52Z" transform="translate(-153.9 -137.59)"/><path class="cls-5" d="M933.13,583.17c20.83-16.93,31.5-46.08,38.87-82.3a153.66,153.66,0,0,0,2.27-48.41l-6.2.17c0,.84,1.73,83.87-43.2,120.38Z" transform="translate(-153.9 -137.59)"/><path class="cls-5" d="M951.91,568.52l-3.16-12.7c33.41-8.33,62.78-25.93,76.94-55.08A153.28,153.28,0,0,0,1039,458.21l5.86.19c0,.9-.85,22.35-12.66,46.66C1021.26,527.61,998.44,556.92,951.91,568.52Z" transform="translate(-153.9 -137.59)"/><path class="cls-6" d="M567.12,670.19c-1.55-.28-112.75,37.1-112.75,94.75s103.87,80.86,158.28,66.11S745,823.74,784.81,850.74s98.06-62.89,214.66-38.43,167,1.32,234.77-35.95S1346.06,805.5,1406,792.78s92.76-104.32,8.58-134.14-408.74-65.24-468.61-59.35S567.12,670.19,567.12,670.19Z" transform="translate(-153.9 -137.59)"/><path class="cls-5" d="M886.44,1273.07s33.46-99.59,40.86-181.75c8.18-90.74-15.51-187.19,1.15-243.91,19.61-66.75-8.2-176.69-19.85-248.12,0,0,72.76,190.23,57.14,235.12-14.69,42.22.67,169.31,14.85,248.06s-15.76,141.64,0,190.6C980.59,1273.07,910.45,1296.58,886.44,1273.07Z" transform="translate(-153.9 -137.59)"/><path class="cls-5" d="M947.56,961.76l-8.81-7.48c.52-.6,12.89-15,36.22-30.92a235.35,235.35,0,0,1,102.58-39c83.56-10.43,200-92.25,204.49-161.62l11.53.76c-2.29,35-30.1,75.38-76.3,110.75-43.32,33.15-95,56.17-138.29,61.57C995.53,906.28,958.21,982.15,947.56,961.76Z" transform="translate(-153.9 -137.59)"/><path class="cls-5" d="M960.89,787.6l-2.68-11.24c.46-.11,26.35-6.48,57.85-25,29-17.06,72.38-46.57,97.69-98.3l6.92,3.39c-26.64,54.47-68.61,87.21-99.12,105.08C988.5,780.9,962,787.34,960.89,787.6ZM959.55,782l-1.34-5.62h0Z" transform="translate(-153.9 -137.59)"/><path class="cls-5" d="M1028.84,752c-17.65-15.8-25.83-42-30.8-74.2a135.72,135.72,0,0,1,0-42.79l5.46.42c-.06.73-5.07,73.87,33,108Z" transform="translate(-153.9 -137.59)"/><path class="cls-5" d="M1076.33,723.83q-3.57,0-7.24-.11l.34-11.55c53.43,1.55,88.54-15.13,108.59-29.4,21.74-15.46,31-31.54,31.11-31.7l5,2.83c-.41.74-6.7,20.56-30.29,37.51C1163.25,706.23,1129.28,723.83,1076.33,723.83Z" transform="translate(-153.9 -137.59)"/><path class="cls-5" d="M909.55,862.94c-141.73,0-272-129.67-323.81-175.94-9.24-8.25-18-16-20.17-17.09a4,4,0,0,0,1.55.28V658.64c4.07,0,7.71,3.12,26.31,19.74,52.64,47,203.11,171.14,345.32,162.6l-8.2,22C925.65,863.23,914.43,862.94,909.55,862.94Z" transform="translate(-153.9 -137.59)"/><path class="cls-5" d="M631.19,808.05c-35.68,0-63.87-8.48-84.86-14.93-40.79-12.54-57.78-35-58.66-35.72l3.34-4c.2.17,20.6,17,59.37,28.84,35.8,10.9,95.07,19.58,174.14-.95l13.11,15.79C701.72,806.43,659,808.05,631.19,808.05Z" transform="translate(-153.9 -137.59)"/><path class="cls-5" d="M786.66,810.79,776.14,806c34-75-6.34-151.72-6.8-152.46l4.33-2.75c.51.8,12.65,20,20.4,49.36C801.26,727.35,805.81,768.6,786.66,810.79Z" transform="translate(-153.9 -137.59)"/><path class="cls-5" d="M788.89,723.85c-30.06,0-54.31-32-68.41-47.92-3.45-3.88-8.43-11.9-9.85-9.94,0,0-2.66-2.8-1.53-2.8l3.5.7c3.59,3.06,6.29,2.14,14.18,11,13.33,15,39,39.3,64.81,37.27l.9,11.52C791.28,723.8,790.08,723.85,788.89,723.85Z" transform="translate(-153.9 -137.59)"/><path class="cls-5" d="M927.65,718.13c-46.44-6.5-72.66-28.23-86.47-45.32-15.1-18.68-19-35.83-19.2-36.55l11.27-2.53c0,.16,3.69,15.65,17.29,32.27,18.18,22.23,44.67,35.92,78.71,40.69Z" transform="translate(-153.9 -137.59)"/><path class="cls-5" d="M1003.41,691.41l-3.94-10.86c28.59-10.35,52.77-28.47,62.56-55.35a135.32,135.32,0,0,0,7.83-38.56l5.16-.36c.06.79,1.29,19.7-6.87,42.12C1060.58,649.19,1043.21,677,1003.41,691.41Z" transform="translate(-153.9 -137.59)"/><path class="cls-5" d="M1230.44,840.35c-5.85,0-14-.61-20.06-.92l4.08-17c35.49,1.85,67.59-1.92,95.4-11.21,22.12-7.38,41.61-18.26,57.92-32.33a146.16,146.16,0,0,0,29-33.86,94.18,94.18,0,0,0,8-15.74l10.91,3.79c-.39,1.13-10,28.08-39.85,54.09-17.46,15.18-38.27,26.91-61.88,34.85C1289.46,830.25,1260.59,840.35,1230.44,840.35Z" transform="translate(-153.9 -137.59)"/><path class="cls-7" d="M301.43,718.13s39.84,31,96.37,22S494.94,712,548,730.8s173.27,30,266-7.64,187.42-68.45,289.63-35.71,157.1,55.41,232.82,30.68,118.28,53.21,204.9,12.67,29.53-102-37.52-114.59-171.17-94.53-292.31-75.63-231.77-32.86-347.59-7.87-176.75,63-294.11,53.57S212.89,648.33,301.43,718.13Z" transform="translate(-153.9 -137.59)"/><path class="cls-7" d="M756.81,537.64s-71.56,7.34-112.1,22-133.5,5.87-98.17-39.61,61.69-74.82,140.74-66,158.17,17.61,180.44,38.14S787.82,542,756.81,537.64Z" transform="translate(-153.9 -137.59)"/><path class="cls-7" d="M930.79,472.28c29.9-6.9,80.57,21.54,130.34,45.29s152.87,7.16,111.35-62.18-72.75-114.25-171.91-104.91-198.4,18.69-227.34,48.19S849.48,491.06,930.79,472.28Z" transform="translate(-153.9 -137.59)"/><path class="cls-8" d="M2982.89,1317.13q-14,21.57-30,42.38c-234.77,304.17-799.95,487.24-1421.46,487.24q-40.82,0-80.81-1c-349-9.1-650.33-77.34-874.45-193.17-58.3-30.12-111.35-63.47-158.67-99.82C1175.23,1361.26,2571.64,1324,2982.89,1317.13Z" transform="translate(-153.9 -137.59)"/><path class="cls-9" d="M1414.21,1327.8s-633.55,69.53-1056.3,174.79a711,711,0,0,1-92.75-103.7C466.39,1376.45,1048.1,1316.42,1414.21,1327.8Z" transform="translate(-153.9 -137.59)"/><circle class="cls-10" cx="1391.72" cy="363.33" r="42.04" transform="translate(-3.19 952.92) rotate(-45)"/><path class="cls-5" d="M2710.39,1140.56h0a16,16,0,0,1,16-16h9.67a16,16,0,0,0,13.71-7.74l26.18-43.39a16,16,0,0,1,13.71-7.74h27.84a16,16,0,0,1,15.59,19.66l-15,64.24a16,16,0,0,1-16.72,12.33l-76.07-5.37A16,16,0,0,1,2710.39,1140.56Z" transform="translate(-153.9 -137.59)"/><path class="cls-11" d="M2887,1122.6h-8.26V1017H2653a20.87,20.87,0,0,0-18.14,10.57l-34.3,60.52a19.91,19.91,0,0,0-2.59,9.8v19.68h-8.26v-19.68a28.28,28.28,0,0,1,3.66-13.88l34.3-60.51a29.17,29.17,0,0,1,25.33-14.76H2887Z" transform="translate(-153.9 -137.59)"/><path class="cls-12" d="M2546.32,1175.74a52.37,52.37,0,0,1-15.14,0,51.88,51.88,0,1,0,0,103.76,52.37,52.37,0,0,1,15.14,0,51.88,51.88,0,0,0,0-103.76Z" transform="translate(-153.9 -137.59)"/><path class="cls-13" d="M2784.53,1144.38l.7-104.18-138.31,1.34a12.77,12.77,0,0,0-11.7,8l-23.85,58.67-120.75,32s-24.86,5.69-26.29,29.13c-1.08,18-.5,46.55-.17,58.88a6.16,6.16,0,0,0,6.16,6h3.6c2.84,0,155.66-.53,164.27-.53l252.21,1.73,24.2-43.9,34.91-68.86H2847.57l-9.73,21.6Z" transform="translate(-153.9 -137.59)"/><path class="cls-11" d="M2534.48,1234.61c-.06-4.3,27.7-65.09,27.7-65.09l118.28,2.45,26.15,63.64Z" transform="translate(-153.9 -137.59)"/><path class="cls-11" d="M2767.1,1234.36c-.06-4.3,27.71-65.09,27.71-65.09l118.27,2.45,26.15,63.64Z" transform="translate(-153.9 -137.59)"/><path class="cls-14" d="M2774.86,1140.56h0a16,16,0,0,1,16-16h9.67a16,16,0,0,0,13.71-7.74l26.18-43.39a16,16,0,0,1,13.71-7.74H2882a16,16,0,0,1,15.59,19.66l-15,64.24a16,16,0,0,1-16.72,12.33l-76.07-5.37A16,16,0,0,1,2774.86,1140.56Z" transform="translate(-153.9 -137.59)"/><path class="cls-15" d="M2967,1132.34v55.07a16,16,0,0,1-1.93,7.62l-20,37a6.36,6.36,0,0,1-5.6,3.34h-4.8a2.6,2.6,0,0,1-2.38-1.55L2915.62,1196a18.61,18.61,0,0,0-17-11.09h-61.14a24.31,24.31,0,0,0-21.93,13.8L2803.87,1223a21.78,21.78,0,0,1-19.64,12.36h-87.35a22.47,22.47,0,0,1-20-12.48l-13.61-27a20.43,20.43,0,0,0-18.21-11.35h-67.26a20.3,20.3,0,0,0-18,11l-17.9,34.54c-1.3,2.52-3.61,4.55-6.4,4.55l-4.12,0c-3.28,0-5.6-3.09-5.69-6.43-.32-12.33-.89-40.9.17-58.88,1.4-23.44,25.75-29.12,25.75-29.12l137.82-30.65a2.6,2.6,0,0,0,1.89-1.7l22.37-65.17a2.58,2.58,0,0,1,2.43-1.75l70.16-.66a2.59,2.59,0,0,1,2.63,2.61l-.66,98.91a2.6,2.6,0,0,0,2.61,2.62l99.24-.16a2.59,2.59,0,0,0,2.37-1.55l8.16-18.51a2.59,2.59,0,0,1,2.38-1.55h54.23A9.75,9.75,0,0,1,2967,1132.34Z" transform="translate(-153.9 -137.59)"/><circle class="cls-11" cx="2447.32" cy="1106.86" r="51.88"/><circle class="cls-12" cx="2462.46" cy="1106.86" r="51.88"/><path class="cls-16" d="M2584.19,1244.46a32.17,32.17,0,1,1,32.17,32.16A32.17,32.17,0,0,1,2584.19,1244.46Z" transform="translate(-153.9 -137.59)"/><path class="cls-12" d="M2604.72,1244.46a11.64,11.64,0,1,1,11.64,11.63A11.64,11.64,0,0,1,2604.72,1244.46Z" transform="translate(-153.9 -137.59)"/><path class="cls-12" d="M2619.58,1229.6a2,2,0,1,1,2,2A2,2,0,0,1,2619.58,1229.6Z" transform="translate(-153.9 -137.59)"/><path class="cls-12" d="M2601.22,1235.61a2,2,0,1,1,2,2A2,2,0,0,1,2601.22,1235.61Z" transform="translate(-153.9 -137.59)"/><path class="cls-12" d="M2623,1259.41a2,2,0,1,1-2-2A2,2,0,0,1,2623,1259.41Z" transform="translate(-153.9 -137.59)"/><path class="cls-12" d="M2605.18,1254a2,2,0,1,1-2-2A2,2,0,0,1,2605.18,1254Z" transform="translate(-153.9 -137.59)"/><path class="cls-12" d="M2632.68,1243.83a2,2,0,1,1-2.76.47A2,2,0,0,1,2632.68,1243.83Z" transform="translate(-153.9 -137.59)"/><circle class="cls-11" cx="2706.77" cy="1106.86" r="51.88"/><circle class="cls-12" cx="2721.91" cy="1106.86" r="51.88"/><path class="cls-16" d="M2843.63,1244.46a32.17,32.17,0,1,1,32.17,32.16A32.17,32.17,0,0,1,2843.63,1244.46Z" transform="translate(-153.9 -137.59)"/><path class="cls-12" d="M2864.16,1244.46a11.64,11.64,0,1,1,11.64,11.63A11.64,11.64,0,0,1,2864.16,1244.46Z" transform="translate(-153.9 -137.59)"/><path class="cls-12" d="M2879,1229.6a2,2,0,1,1,2,2A2,2,0,0,1,2879,1229.6Z" transform="translate(-153.9 -137.59)"/><path class="cls-12" d="M2860.66,1235.61a2,2,0,1,1,2,2A2,2,0,0,1,2860.66,1235.61Z" transform="translate(-153.9 -137.59)"/><path class="cls-12" d="M2882.46,1259.41a2,2,0,1,1-2-2A2,2,0,0,1,2882.46,1259.41Z" transform="translate(-153.9 -137.59)"/><path class="cls-12" d="M2864.62,1254a2,2,0,1,1-2-2A2,2,0,0,1,2864.62,1254Z" transform="translate(-153.9 -137.59)"/><path class="cls-12" d="M2892.12,1243.83a2,2,0,1,1-2.76.47A2,2,0,0,1,2892.12,1243.83Z" transform="translate(-153.9 -137.59)"/><path class="cls-17" d="M2686.39,1098.69c4.09-11.48,12.86-35.35,16.81-46.07a4,4,0,0,0-3.78-5.38l-50.29.39a9.51,9.51,0,0,0-8.7,5.86l-19,45.71a4.79,4.79,0,0,0,4.49,6.63l51.44-.68A9.73,9.73,0,0,0,2686.39,1098.69Z" transform="translate(-153.9 -137.59)"/><path class="cls-17" d="M2718.71,1050.15l-15.91,49.77a4.19,4.19,0,0,0,4,5.47h69.68a4.2,4.2,0,0,0,4.19-4.13l.69-49.77a4.19,4.19,0,0,0-4.19-4.25H2722.7A4.2,4.2,0,0,0,2718.71,1050.15Z" transform="translate(-153.9 -137.59)"/><path class="cls-11" d="M2958.47,1122.6h-8.26v-96.19a9.37,9.37,0,0,0-9.37-9.38H2717.73a9.4,9.4,0,0,0-8.16,4.76l-39,68.74a9.33,9.33,0,0,0-1.22,4.62v20a2.4,2.4,0,0,1-2.41,2.4h0a5.85,5.85,0,0,1-5.85-5.85v-16.6a17.7,17.7,0,0,1,2.29-8.7l39-68.74a17.69,17.69,0,0,1,15.35-8.94h223.11a17.63,17.63,0,0,1,17.63,17.64Z" transform="translate(-153.9 -137.59)"/><path class="cls-15" d="M2467.2,1172.06l-.35,36.57c0,4.71,2.85,8.5,6.44,8.41l43.93-1.18c3.28-.09,6-3.6,6-7.91l.66-41.35c.08-4.57-2.83-8.2-6.3-7.85l-44,4.38C2470,1163.48,2467.24,1167.38,2467.2,1172.06Z" transform="translate(-153.9 -137.59)"/><path class="cls-12" d="M2519.52,1183.51c.62,6.76-.77,12.78-3.2,14.82a3,3,0,0,1-1.42.71c-3.28.58-6.52-5.43-7.24-13.43s1.34-14.94,4.62-15.52a2.6,2.6,0,0,1,1.5.18C2516.5,1171.4,2518.91,1176.74,2519.52,1183.51Z" transform="translate(-153.9 -137.59)"/><path class="cls-16" d="M2519.52,1183.51c.62,6.76-.77,12.78-3.2,14.82-2.71-1.13-5.12-6.47-5.73-13.24s.77-12.77,3.19-14.82C2516.5,1171.4,2518.91,1176.74,2519.52,1183.51Z" transform="translate(-153.9 -137.59)"/><path class="cls-12" d="M2481.85,1186.83c.61,6.76-.77,12.78-3.2,14.82a3,3,0,0,1-1.42.71c-3.28.58-6.52-5.43-7.24-13.43s1.34-14.94,4.62-15.52a2.61,2.61,0,0,1,1.5.18C2478.82,1174.72,2481.24,1180.06,2481.85,1186.83Z" transform="translate(-153.9 -137.59)"/><path class="cls-16" d="M2481.85,1186.83c.61,6.76-.77,12.78-3.2,14.82-2.71-1.13-5.13-6.47-5.74-13.24s.78-12.77,3.2-14.82C2478.82,1174.72,2481.24,1180.06,2481.85,1186.83Z" transform="translate(-153.9 -137.59)"/><path class="cls-18" d="M2401.17,1175.33c13.07,24.63,18,72.5,18.19,115.39.2,41.22-.84,78-.84,78l-28.73,8.25s-6.5-35.37-16.41-83.31c-7.32-35.33-16.51-77.51-26.33-117.4-2.39-9.71-4.67-19.46-6.84-29.14-15.15-67.27-24.82-130-25-139.3-.27-18.35,60.28-3.49,66.62,17.11C2381.86,1024.88,2395.85,1165.29,2401.17,1175.33Z" transform="translate(-153.9 -137.59)"/><path class="cls-10" d="M2419.36,1290.72c.2,41.22-.84,78-.84,78l-28.73,8.25s-6.5-35.37-16.41-83.31C2373.85,1293.74,2396.68,1299.84,2419.36,1290.72Z" transform="translate(-153.9 -137.59)"/><path class="cls-19" d="M2416.41,1404.8l-76.72-.16s0-8.85,12.33-10.82c11.49-1.84,31.09-8.24,36.66-22.13,7.81,2.6,17.59,1.9,29.84-3C2419.25,1383.75,2419.83,1403.12,2416.41,1404.8Z" transform="translate(-153.9 -137.59)"/><path class="cls-20" d="M2320.34,651s-42.07-6.2-51.68,4.58,3.07,45.26,3.07,45.26l57.38,23.28s.35-2.86,7.65-5.14,21.27-13.68,17.14-23.72S2320.34,651,2320.34,651Z" transform="translate(-153.9 -137.59)"/><path class="cls-18" d="M2167.78,869.86s-10.05-15.3-18.15-15.6-23.11-4.5-21.91-1.5,10.51,3.3,11.41,5.1-13.81,4.5-18,4.8-14.1,0-13.8,2.1,17.85,10.8,30.23,9.6,27.68,3.6,27.68,3.6Z" transform="translate(-153.9 -137.59)"/><path class="cls-4" d="M2277.36,869.94a118.81,118.81,0,0,1-12.13,18.35c-9.42,11.8-24,25.44-42.21,28.13-8.71,1.29-17.24-.59-25.07-4.07h0c-22.16-9.84-38.83-32.47-38.83-32.47a18.24,18.24,0,0,1,2.49-17.88s44.75,10.07,49,7.94,29.13-73.76,35-82.76S2280,770.55,2280,770.55Z" transform="translate(-153.9 -137.59)"/><path class="cls-21" d="M2265.23,888.29c-9.42,11.8-24,25.44-42.21,28.13-8.71,1.29-17.24-.59-25.07-4.07.87.12,23,2.85,31.82-12.93,9-16.11,18.73-41.68,32.1-33.15C2267.64,870,2267.38,879.09,2265.23,888.29Z" transform="translate(-153.9 -137.59)"/><path class="cls-18" d="M2383.42,979.55C2367.63,944.14,2358,934,2359.81,923c1.38-8.18-4.18-152.5-4.18-152.5-1.87-.58-5.62-1.1-7.68-1.56a19.26,19.26,0,0,1-14.06-12.23c-2.69-7.53-4.83-18.64-4.78-32.56l-2,.39-34,6.74s.78,10.7.8,20.78v.25a19.55,19.55,0,0,1-14.11,18.91l-8,2.3s-12.48,35.65-14.87,72.27,22.71,52.54-.19,125.72C2233.3,1046.25,2392.14,999.11,2383.42,979.55Z" transform="translate(-153.9 -137.59)"/><path class="cls-22" d="M2293.08,731.27s.78,10.7.8,20.78c19-.54,29.09-17.89,33.21-27.52Z" transform="translate(-153.9 -137.59)"/><path class="cls-18" d="M2286.73,740.81s45,.75,45.05-27.3,5.87-46.83-22.88-48.49-34.34,9-36.63,18.39S2275,739.9,2286.73,740.81Z" transform="translate(-153.9 -137.59)"/><path class="cls-20" d="M2288.4,664.33s12.32,32.9,31.24,37.77,27.12-.21,27.12-.21a53.58,53.58,0,0,1-17.52-31.65S2297.69,648.67,2288.4,664.33Z" transform="translate(-153.9 -137.59)"/><path class="cls-20" d="M2291.45,667s-9.14,3.42-12.9,10.08a45.32,45.32,0,0,0-6.09,25.75s-9.29-22.36,1.15-35C2284.68,654.4,2291.45,667,2291.45,667Z" transform="translate(-153.9 -137.59)"/><path class="cls-23" d="M2296.53,723.42a11.35,11.35,0,0,1-9.33,3.79,8.28,8.28,0,0,1-6.93-4.58S2289.46,720.42,2296.53,723.42Z" transform="translate(-153.9 -137.59)"/><path class="cls-4" d="M2377.29,834.33s-.17,21.35-1.32,40.69c-.76,12.83-1.94,24.77-3.78,29-4.61,10.66-9.82,12.39-9.82,12.39l-40.28,9.88-14.17,3.46-44.66-13.34s-20.35-56.78-12.18-88.75,20.65-54.16,20.65-54.16,35.61-16.42,83.91-3Z" transform="translate(-153.9 -137.59)"/><path class="cls-21" d="M2376,875c-.76,12.83-1.94,24.77-3.78,29-4.61,10.66-9.82,12.39-9.82,12.39l-40.28,9.88-17.5-5.15s62.45-26.7,56-76.95Z" transform="translate(-153.9 -137.59)"/><path class="cls-18" d="M2327.41,1177.64c11.18,25.54,12.47,73.65,9.46,116.44-2.9,41.12-6.7,77.66-6.7,77.66l-29.27,6.07s-3.82-35.76-10.1-84.31c-4.64-35.78-10.63-78.53-17.42-119-1.66-9.87-3.2-19.76-4.64-29.57-10-68.21-15-131.54-14.42-140.78,1.1-18.32,7.69-56.31,10.49-72,.8-4.38,1.29-7,1.29-7H2326s1.53,1.64,3.87,4.76a116.41,116.41,0,0,1,19.83,43.32S2322.86,1167.23,2327.41,1177.64Z" transform="translate(-153.9 -137.59)"/><path class="cls-5" d="M2349.65,973.12l-13,160.21v.07l-.52,6.31-.06.7c-38.28,10.83-58,8-67.32,4.47-5.52-2.09-7.43-4.47-7.43-4.47s-10.07-120.48-10.07-146.13,12.64-62.18,12.64-62.18l.93,0,65-2.27A116.41,116.41,0,0,1,2349.65,973.12Z" transform="translate(-153.9 -137.59)"/><path class="cls-14" d="M2277.6,929.07l-7.2,65.21,54.73,160.78s45.16.57,81.65-14.65c0,0-4.55-135-13.3-156s-28.89-54.71-28.89-54.71Z" transform="translate(-153.9 -137.59)"/><path class="cls-10" d="M2295.53,724.17s-.78,3.3-9,2.79c0,0-6.91-.43-6.7-4.06C2279.83,722.9,2286.53,720.32,2295.53,724.17Z" transform="translate(-153.9 -137.59)"/><path class="cls-19" d="M2262.56,914.41s8.89,7,26.52,7.38c21.08.43,73.29-5.37,73.29-5.37a43.08,43.08,0,0,1,2.22,13.33s-63.77,16.08-100.71,2.35C2263.88,932.1,2259.11,923.13,2262.56,914.41Z" transform="translate(-153.9 -137.59)"/><path class="cls-10" d="M2284,940c-5.3,0-9.61-4.88-9.61-10.88s4.31-10.88,9.61-10.88,9.61,4.88,9.61,10.88S2289.33,940,2284,940Zm0-18.58c-3.54,0-6.43,3.46-6.43,7.7s2.89,7.69,6.43,7.69,6.43-3.45,6.43-7.69S2287.57,921.37,2284,921.37Z" transform="translate(-153.9 -137.59)"/><path class="cls-21" d="M2355.56,679.23s11.22-40.86-17.78-50.31-46.91.13-57.66,20.94Z" transform="translate(-153.9 -137.59)"/><path class="cls-4" d="M2353.74,672.12A182.74,182.74,0,0,0,2319,654.9a191.89,191.89,0,0,0-30.61-8.78c-24.5-4.75-43.55-2.38-47.19,7.29-3.55,9.42,6.46,23.29,26.93,35.63-1.08-4.29-1.71-7.62-2.55-12.76-.38-3.75-1-6.41.06-9.13,1.19-3.15,4.94-5.09,10.41-5.82,9.4-1.25,23.89,1,39.15,6.76,18.39,6.93,32.59,16.88,36.91,25,0,0,0,0,0,0a2.8,2.8,0,0,1,.15.3c.14.28.26.54.38.81s.21.52.3.78a7.09,7.09,0,0,1,.33,1.26,6.81,6.81,0,0,1,.18,1.89,2.35,2.35,0,0,1,0,.27c-.14,6.38-6.09,13.47-9.46,16.68,18,1.7,31.53-2.13,34.5-10C2381.79,696.35,2371.67,683.78,2353.74,672.12Z" transform="translate(-153.9 -137.59)"/><path class="cls-10" d="M2336.87,1294.08c-2.9,41.12-6.7,77.66-6.7,77.66l-29.27,6.07s-3.82-35.76-10.1-84.31C2291.26,1293.66,2313.57,1301.46,2336.87,1294.08Z" transform="translate(-153.9 -137.59)"/><path class="cls-19" d="M2327.66,1404.8l-76.72-.16s0-8.85,12.33-10.82c11.49-1.84,31.09-8.24,36.65-22.13,7.82,2.6,18,3.35,30.29-1.56C2331,1385.21,2331.08,1403.12,2327.66,1404.8Z" transform="translate(-153.9 -137.59)"/><path class="cls-21" d="M2305.63,765.73s19.9-6.6,25.94-17.14c0,0,13.4,9.81,18.19,20.59,0,0-16.25,20.69-40.71,23.77Z" transform="translate(-153.9 -137.59)"/><path class="cls-21" d="M2293.29,757.2s6.35,6.8,12.34,8.53l-9.1,26.37s-15.44-4.37-16.76-20.89C2279.63,769.52,2290.69,757.7,2293.29,757.2Z" transform="translate(-153.9 -137.59)"/><path class="cls-18" d="M2368.41,952.26s-19.1-3-22.53,0-13.17,16.13-11.34,20.09,15.22-3.05,18.16-4.06,8.53,5.65,14.61,3.82a31,31,0,0,0,10-5.05Z" transform="translate(-153.9 -137.59)"/><path class="cls-4" d="M2355.64,770.48s37.91,10.12,44.75,26.64,44.47,98.13,44.47,113.43-16.94,44.46-64.77,58.3c0,0-4.9.8-10-6.62-1.37-2-4.59-10.39-4.59-10.39s33.73-42.4,34.78-46.51-47.3-49.73-48.66-61.13S2355.64,770.48,2355.64,770.48Z" transform="translate(-153.9 -137.59)"/><path class="cls-18" d="M2365.05,954.7s-1-4.43-5-6.18-7.58-5.56-7.89-4.45-.57,3,1.46,5.22S2359.16,955.3,2365.05,954.7Z" transform="translate(-153.9 -137.59)"/><path class="cls-14" d="M1497.9,1085.2a44.41,44.41,0,0,1-3.37,5.15c-.43.56-.87,1.12-1.33,1.68a76.05,76.05,0,0,1-8.32,8.61c-1.75,1.57-3.59,3.11-5.49,4.6-2.17,1.69-4.42,3.32-6.71,4.87l-.45.3c-1.08.72-2.16,1.42-3.25,2.11a122.13,122.13,0,0,1-11.37,6.29c-1.73.83-3.43,1.6-5.09,2.28l-.16.06a37.49,37.49,0,0,1-11.68,2.5c-1.1.06-2.22.1-3.36.1a68.84,68.84,0,0,1-11.19-1c-1.16-.19-2.32-.42-3.48-.66q-2.79-.58-5.55-1.35l-.76-.21c-.83-.24-1.66-.48-2.49-.74-2.6-.82-5.16-1.72-7.64-2.7-1.65-.66-3.27-1.33-4.84-2l-1.43-.65a94.32,94.32,0,0,1-9.66-5.18,53.54,53.54,0,0,1-9.23-7,22.93,22.93,0,0,1-1.82-2,28.62,28.62,0,0,1-4-6.72,38.59,38.59,0,0,1-1.81-5.14l-.15-.52a57.36,57.36,0,0,1-1.72-10.13c-.74-8.58.19-16.73,1.35-20.92,2.27-8.14-1.36-15.84-1.81-29.86a37.7,37.7,0,0,0-.75-5.26c-.93-4.84-2.65-12.14-4.88-20.92-1.1-4.37-2.33-9.1-3.64-14.08-.88-3.32-1.79-6.76-2.74-10.26-1.21-4.51-2.47-9.15-3.76-13.83-1.69-6.16-3.41-12.4-5.13-18.55-.68-2.45-1.37-4.88-2-7.29q-.95-3.37-1.88-6.68h0c-.16-.55-.3-1.08-.45-1.62-1.4-5-2.76-9.74-4-14.25h0c-.32-1.12-.63-2.22-1-3.3h0c-1.08-3.82-2.11-7.42-3.06-10.72-.29-1.05-.59-2.06-.87-3.05l-.62-2.15-2.78-9.66c-1.16-4-1.83-6.3-1.83-6.3l10.58-10.75s.85,1.66,2.38,4.62l2.3,4.45c1.11,2.14,2.4,4.63,3.84,7.39.33.64.68,1.29,1,2,2.67,5.13,5.82,11.11,9.28,17.65.35.67.71,1.35,1.08,2,1.93,3.65,4,7.47,6.06,11.4,1.77,3.29,3.57,6.66,5.43,10.07.71,1.33,1.43,2.68,2.16,4h0l5.93,10.87q2.49,4.54,5,9.08c.16.28.31.55.45.82,3.64,6.54,7.28,13,10.84,19.22l1.12,2c3.52,6.11,6.95,11.94,10.21,17.31,8.35,13.77,15.53,24.5,20.09,29,19.45,19.45,65.14,31.67,71,49.31C1502.09,1074.38,1500.93,1079.76,1497.9,1085.2Z" transform="translate(-153.9 -137.59)"/><path class="cls-5" d="M1504.73,1108.22h0c-2.4,20.16-7.77,41.19-8.33,46.79-1,10.18,3.39,21.37,4.81,25.79,1,3.09-4,38.87-7,60.07h-10.64c2.34-13.46,5.1-32.59,4.29-44.24-.86-12.26-3.87-29-8.13-46.39v0c-2.51-10.2-5.43-20.62-8.61-30.5-.78-2.4-1.47-4.81-2.09-7.22-.26-1-.49-1.92-.73-2.89-.37-1.58-.72-3.16-1-4.73-.52-2.56-1-5.08-1.36-7.55-.13-.72-.24-1.44-.34-2.15h0c-.46-3.08-.81-6-1.1-8.84a20.67,20.67,0,0,1,2.73-12.79c.27-.46.56-.91.87-1.34a16.33,16.33,0,0,1,1.07-1.41,21.63,21.63,0,0,1,5.06-4.44,21,21,0,0,1,17.36-2.52,20.49,20.49,0,0,1,8.23,4.92l.75.75h0c2.66,2.79,4.18,7.31,4.89,12.87l0,.34c.14,1.17.25,2.37.34,3.62a.4.4,0,0,0,0,.11A127,127,0,0,1,1504.73,1108.22Z" transform="translate(-153.9 -137.59)"/><path class="cls-5" d="M1429.9,1240.88h-8.3c-.54-13-1.8-38.38-3.76-52.15-1.1-7.65-5.71-26.74-10.84-46.81v0c-2-7.81-4.06-15.78-6-23.27v0q-.14-.58-.3-1.14c-.14-.56-.29-1.12-.43-1.67a9.3,9.3,0,0,1-.29-1.41,10.65,10.65,0,0,1,.5-5.1,9.5,9.5,0,0,1,.64-1.46,11.37,11.37,0,0,1,8.15-5.81,10.72,10.72,0,0,1,9,2.7l4.47,4a9.46,9.46,0,0,1,3.15,6.74l0,1.36.2,6,.11,3.65Z" transform="translate(-153.9 -137.59)"/><path class="cls-5" d="M1410.17,1240.88h-8.3c-.54-13-1.8-38.38-3.76-52.15-2.3-16-18.35-76.58-23.36-95.29-.66-2.46-1.12-4.21-1.35-5l-.14-.53,4.85,3.49h0l2.82,2,1.12.8,1.76,1.25,5.27,3.78,2.49,1.78,0,0,5,3.57h0l3.65,2.6.84.61,1.8,1.3,2,1.45,1.1.79.19,5.72.16,4.93.63,19.88v0Z" transform="translate(-153.9 -137.59)"/><path class="cls-5" d="M1479.78,1186.58c0,1.56-13.53,37.83-19.7,54.3h-10.45c5.87-14,17.27-43,18.27-58.72.9-14-8.81-42.91-15.54-61,0-.1-.06-.18-.09-.26a9.28,9.28,0,0,1,10.51-12.35l5.47,1.08,4,.79.46.09,7.22,1.42s0,4.31-.09,10.64v1.58c0,2.68,0,5.66-.06,8.79,0,5.58-.07,11.65-.09,17.3,0,10.94,0,20.39.1,22.1C1480.12,1176.74,1479.78,1184.54,1479.78,1186.58Z" transform="translate(-153.9 -137.59)"/><path class="cls-5" d="M1505.37,1082.39s3.93,47.18,10.71,64.49h-3.39s-9.19-33.76-8.82-51.35C1504.13,1083,1505.37,1082.39,1505.37,1082.39Z" transform="translate(-153.9 -137.59)"/><path class="cls-24" d="M1521.17,1155.7a13.27,13.27,0,0,1-2.71-8.82c.17-5.6-5.94-7.3-7.81-2.38S1517.78,1155,1521.17,1155.7Z" transform="translate(-153.9 -137.59)"/><path class="cls-5" d="M1425.38,1048s5,14.09,8.83,13.27,13.79.08,13.12-4.22-5.21-8.37-9.51-9S1424.62,1046,1425.38,1048Z" transform="translate(-153.9 -137.59)"/><path class="cls-5" d="M1449.59,1061.31s-10.52.08-9.16,1.77,6.27,7.4,9.16,6.59S1452.28,1061.22,1449.59,1061.31Z" transform="translate(-153.9 -137.59)"/><path class="cls-5" d="M1414.64,1078.86s-8.31-9.84-12.39-9.16-5.76,9.84-2.71,12.39,8.82,4.58,12.38,3.39S1416.06,1080.45,1414.64,1078.86Z" transform="translate(-153.9 -137.59)"/><path class="cls-5" d="M1396.76,1099.1s4.72-12,2.2-15.25-11.4-.42-12.2,3.48.15,9.93,2.88,12.51S1396,1101.1,1396.76,1099.1Z" transform="translate(-153.9 -137.59)"/><path class="cls-5" d="M1383.94,1089.12a4.76,4.76,0,0,1-3,4.28l-.44.16a7.53,7.53,0,0,1-2.29.35,13.16,13.16,0,0,1-3-.35l-.47-.12c-.66-2.46-1.13-4.21-1.34-5l-.15-.52a57.36,57.36,0,0,1-1.72-10.13c4.25.39,11.68,9.18,11.68,9.18A3.24,3.24,0,0,1,1383.94,1089.12Z" transform="translate(-153.9 -137.59)"/><path class="cls-5" d="M1418.68,1085.8s-10.24,7.82-9.76,11.92,9.54,6.24,12.23,3.32,5-8.58,4-12.2S1420.34,1084.46,1418.68,1085.8Z" transform="translate(-153.9 -137.59)"/><path class="cls-5" d="M1400.45,1102.33s-8.59-12.77-13.51-12.5-8.14,10.94-4.85,14.36,9.88,6.59,14.27,5.65S1401.93,1104.41,1400.45,1102.33Z" transform="translate(-153.9 -137.59)"/><path class="cls-5" d="M1410.43,1105.7s-10.24,7.82-9.76,11.92,9.54,6.24,12.23,3.32,5-8.59,4-12.2S1412.09,1104.36,1410.43,1105.7Z" transform="translate(-153.9 -137.59)"/><path class="cls-5" d="M1435.45,1098.21s7-10.79,5.2-14.5-11.08-2.69-12.64,1-1.85,9.77.32,12.84S1434.33,1100,1435.45,1098.21Z" transform="translate(-153.9 -137.59)"/><path class="cls-5" d="M1424.21,1108.58s9,9.16,13.06,8.17,5-10.26,1.74-12.56-9.15-3.88-12.61-2.42S1422.67,1107.1,1424.21,1108.58Z" transform="translate(-153.9 -137.59)"/><path class="cls-5" d="M1437.32,1123.75a68.84,68.84,0,0,1-11.19-1l.11,3.65c-1.62-1.42-2.73-2.54-2.73-2.54a3.22,3.22,0,0,1-.86-1.77,4.87,4.87,0,0,1,3.12-5.23l.16-.07c3.47-1.35,9.17.13,12.51,2.36l.3.2a5.85,5.85,0,0,1,1.94,4.31C1439.58,1123.71,1438.46,1123.75,1437.32,1123.75Z" transform="translate(-153.9 -137.59)"/><path class="cls-5" d="M1457.61,1118.81c-1.73.83-3.43,1.6-5.09,2.28l-.16.06a37.49,37.49,0,0,1-11.68,2.5c-1.1.06-2.22.1-3.36.1a23.56,23.56,0,0,1,4.59-11c3.26-4,15.19-2,16.13,3.33A5.09,5.09,0,0,1,1457.61,1118.81Z" transform="translate(-153.9 -137.59)"/><path class="cls-5" d="M1434.66,1064.78s-12.67,7.61-11.54,10.71,5.88,5.54,13.35,4.66,13.8-3.21,11.76-7.59S1438,1062.64,1434.66,1064.78Z" transform="translate(-153.9 -137.59)"/><path class="cls-5" d="M1425.34,1082.09s-3.24-6.11-4.76-5.77-4.64,1.51-4.14,2.88-.63,4.5,1.76,4.92S1426,1083.27,1425.34,1082.09Z" transform="translate(-153.9 -137.59)"/><path class="cls-5" d="M1386.9,1093.68s-3.23-6.11-4.76-5.77-4.63,1.51-4.14,2.88-.62,4.5,1.76,4.92S1387.57,1094.86,1386.9,1093.68Z" transform="translate(-153.9 -137.59)"/><path class="cls-5" d="M1472.68,1110.13s.41,13.63,5.26,12.75,8.93-.71,9-5.15-.84-11.11-3.12-12.27S1472.28,1105.71,1472.68,1110.13Z" transform="translate(-153.9 -137.59)"/><path class="cls-5" d="M1487.43,1122.91s-9.77.56-11.22,3.35,3.35,8,6.29,7.3,6.81-3.27,7.72-6S1489.05,1122.78,1487.43,1122.91Z" transform="translate(-153.9 -137.59)"/><path class="cls-5" d="M1488,1104.32s-1.15,11.17,1.24,11.9,6.06-1,8.93-6,4.34-9.85.75-10.61S1488.23,1101.32,1488,1104.32Z" transform="translate(-153.9 -137.59)"/><path class="cls-5" d="M1494.28,1117.88s-5.19-.82-5.68.26-1.2,3.51-.14,3.83,2.45,2.44,3.79,1.18S1495.3,1118,1494.28,1117.88Z" transform="translate(-153.9 -137.59)"/><path class="cls-5" d="M1409.56,1087.11s-6.81-1.15-7.47.27-1.62,4.59-.23,5,3.19,3.23,5,1.6S1410.91,1087.3,1409.56,1087.11Z" transform="translate(-153.9 -137.59)"/><path class="cls-5" d="M1411.29,1105.15s-6-9.9-8.5-9.19-7.6,3-6.64,5.21-.61,7.58,3.4,8.06S1412.52,1107.06,1411.29,1105.15Z" transform="translate(-153.9 -137.59)"/><path class="cls-5" d="M1416.31,1120.53s-7.13,4.24-6.63,6,2.09,5.46,3.69,4.79,5.44.48,5.8-2.4S1417.69,1119.66,1416.31,1120.53Z" transform="translate(-153.9 -137.59)"/><path class="cls-5" d="M1420.63,1140.77s-1.11-8.22-3-8.47-5.85-.22-5.86,1.52-2.56,4.81-.06,6.28S1420.89,1142.38,1420.63,1140.77Z" transform="translate(-153.9 -137.59)"/><path class="cls-5" d="M1433.93,1036.66s4.91,1.42,4.93,2.5.3,4.5-1,4.74-10.71,2.27-11.61.81,1-7.14,3.4-8.1A5.34,5.34,0,0,1,1433.93,1036.66Z" transform="translate(-153.9 -137.59)"/><path class="cls-5" d="M1432,1028.07s3.92,1.13,3.94,2,.24,3.59-.78,3.79-8.55,1.81-9.28.64.84-5.7,2.72-6.47A4.27,4.27,0,0,1,1432,1028.07Z" transform="translate(-153.9 -137.59)"/><path class="cls-5" d="M1406.19,1061.31c-.37,1.35-.63,5.42-2.15,6.19s-6,1.44-6.71,0-1.68-6.71.65-8.74S1406.57,1060,1406.19,1061.31Z" transform="translate(-153.9 -137.59)"/><path class="cls-5" d="M1385.13,1055.84c-1,1-3.09,4.51-4.79,4.47s-6-1.53-5.93-3.12,1.64-6.72,4.65-7.43S1386.1,1054.82,1385.13,1055.84Z" transform="translate(-153.9 -137.59)"/><path class="cls-5" d="M1396.66,1071.63c-.49,1.78-.82,7.15-2.83,8.15s-7.94,1.9-8.83,0-2.22-8.82.85-11.5S1397.16,1069.84,1396.66,1071.63Z" transform="translate(-153.9 -137.59)"/><path class="cls-5" d="M1462.25,1074.12s-14,11.2-9.27,15.61,7.81,8.82,12.56,5.43,11-9.67,10.43-13S1466.57,1070.2,1462.25,1074.12Z" transform="translate(-153.9 -137.59)"/><path class="cls-5" d="M1460.45,1099.74s-8.32-9.84-12.39-9.16-5.77,9.84-2.71,12.38,8.82,4.58,12.38,3.39S1461.87,1101.33,1460.45,1099.74Z" transform="translate(-153.9 -137.59)"/><path class="cls-5" d="M1480.47,1085.66s-12.67,7.61-11.54,10.7,5.88,5.55,13.35,4.66,13.79-3.21,11.76-7.59S1483.79,1083.52,1480.47,1085.66Z" transform="translate(-153.9 -137.59)"/><path class="cls-5" d="M1494.53,1090.37s2.6,6.64,4.17,6.35,3.11-2.35,3.29-6-.42-6.82-2.66-6.2S1493.78,1088.61,1494.53,1090.37Z" transform="translate(-153.9 -137.59)"/><path class="cls-5" d="M1487.76,1068.05s-14.73,1.29-15.06,4.57,2.85,7.56,10,10,13.81,3.16,13.9-1.67S1491.68,1067.58,1487.76,1068.05Z" transform="translate(-153.9 -137.59)"/><path class="cls-5" d="M1471.15,1103s-3.24-6.11-4.77-5.77-4.63,1.52-4.13,2.88-.63,4.5,1.75,4.93S1471.81,1104.15,1471.15,1103Z" transform="translate(-153.9 -137.59)"/><path class="cls-5" d="M1464,1070.39s4.45,3,4.86,1.24,2-6.22,0-7.12-6,1.47-6.67,2.82S1464,1070.39,1464,1070.39Z" transform="translate(-153.9 -137.59)"/><path class="cls-5" d="M1469.73,1053.94s1.93,4.1,3,3,4.07-3.68,3-5.17-5-1.51-6-.78S1469.73,1053.94,1469.73,1053.94Z" transform="translate(-153.9 -137.59)"/><path class="cls-5" d="M1454.68,1068.92s4.75-1.9,5.43-1.06,3,3.36,2.14,4.35-7.06,8.36-8.67,7.76-3.57-6.27-2.29-8.48A5.33,5.33,0,0,1,1454.68,1068.92Z" transform="translate(-153.9 -137.59)"/><path class="cls-5" d="M1452,1082.18c-.38,1.36-.63,5.43-2.16,6.19s-6,1.44-6.7,0-1.68-6.7.65-8.74S1452.37,1080.83,1452,1082.18Z" transform="translate(-153.9 -137.59)"/><path class="cls-5" d="M1467.52,1054.24s-12.07-4.5-15.29-1.91-.2,11.41,3.71,12.13,9.94-.34,12.46-3.12S1469.54,1054.93,1467.52,1054.24Z" transform="translate(-153.9 -137.59)"/><path class="cls-5" d="M1489.31,1059.36s-12.07-4.5-15.28-1.91-.2,11.41,3.71,12.13,9.93-.34,12.45-3.12S1491.33,1060.05,1489.31,1059.36Z" transform="translate(-153.9 -137.59)"/><path class="cls-5" d="M1456.21,1041.23s-10-3.75-12.72-1.59-.16,9.48,3.09,10.08,8.26-.27,10.36-2.59S1457.89,1041.8,1456.21,1041.23Z" transform="translate(-153.9 -137.59)"/><path class="cls-5" d="M1416.44,1053.25s-14,11.19-9.27,15.6,7.81,8.83,12.56,5.43,11-9.66,10.43-13S1420.76,1049.33,1416.44,1053.25Z" transform="translate(-153.9 -137.59)"/><path class="cls-5" d="M1418.2,1049.51s4.44,3.06,4.85,1.25,2-6.22,0-7.13-6,1.47-6.67,2.83S1418.2,1049.51,1418.2,1049.51Z" transform="translate(-153.9 -137.59)"/><path class="cls-5" d="M1408.87,1048s4.75-1.89,5.43-1.06,3,3.37,2.14,4.35-7.06,8.36-8.67,7.77-3.57-6.28-2.29-8.48A5.33,5.33,0,0,1,1408.87,1048Z" transform="translate(-153.9 -137.59)"/><path class="cls-5" d="M1374.62,1072.5s1.61-4.86,2.69-4.84,4.51-.13,4.7,1.16,1.85,10.79.36,11.64-7.1-1.32-8-3.71A5.32,5.32,0,0,1,1374.62,1072.5Z" transform="translate(-153.9 -137.59)"/><path class="cls-5" d="M1396,1058.49c-.37,1.36-.63,5.43-2.15,6.19s-6,1.44-6.71,0-1.68-6.7.65-8.74S1396.39,1057.13,1396,1058.49Z" transform="translate(-153.9 -137.59)"/><path class="cls-5" d="M1388.82,1020.72s-6.72,16.63-.42,18.15,11.13,3.86,13.6-1.43,4.87-13.83,2.73-16.43S1390.66,1015.19,1388.82,1020.72Z" transform="translate(-153.9 -137.59)"/><path class="cls-5" d="M1399.81,1043.93s-12.07-4.5-15.28-1.91-.2,11.4,3.71,12.12,9.93-.33,12.45-3.11S1401.83,1044.62,1399.81,1043.93Z" transform="translate(-153.9 -137.59)"/><path class="cls-5" d="M1410.35,1021.84s-7.3,12.84-4.8,15,7.85,2,13.92-2.48,10.45-9.57,6.52-12.38S1412.2,1018.34,1410.35,1021.84Z" transform="translate(-153.9 -137.59)"/><path class="cls-5" d="M1410.72,1041.49s-5.82-3.74-7-2.69-3.29,3.59-2.2,4.54,1.67,4.22,4,3.43S1411.88,1042.2,1410.72,1041.49Z" transform="translate(-153.9 -137.59)"/><path class="cls-5" d="M1404.48,1057.05s-1-4.3-2-4.33-3.11.2-3,1.13-1.1,2.69.31,3.33S1404.71,1057.89,1404.48,1057.05Z" transform="translate(-153.9 -137.59)"/><path class="cls-5" d="M1385.7,1066.16s-1-4.3-2-4.33-3.11.21-3,1.13-1.1,2.69.3,3.33S1385.93,1067,1385.7,1066.16Z" transform="translate(-153.9 -137.59)"/><path class="cls-5" d="M1374.89,1068.19s2.17-2.25,1.81-2.86-1.3-1.78-1.82-1.38-2,.36-1.87,1.45S1374.47,1068.64,1374.89,1068.19Z" transform="translate(-153.9 -137.59)"/><path class="cls-5" d="M1378,1065s2.17-2.25,1.81-2.86-1.3-1.78-1.82-1.38-2,.37-1.87,1.45S1377.55,1065.49,1378,1065Z" transform="translate(-153.9 -137.59)"/><path class="cls-5" d="M1424.69,1040.47s-1-4.3-2-4.33-3.11.2-3,1.13-1.1,2.69.31,3.33S1424.91,1041.31,1424.69,1040.47Z" transform="translate(-153.9 -137.59)"/><path class="cls-5" d="M1400.34,1008.63s5.37.48,4.84-1.3-1.34-6.38-3.49-6.21-4.56,4.25-4.43,5.74S1400.34,1008.63,1400.34,1008.63Z" transform="translate(-153.9 -137.59)"/><path class="cls-5" d="M1405.33,1008.74s4.05-3.12,4.94-2.5,3.8,2.42,3.24,3.6-4.52,10-6.23,9.84-5.14-5.07-4.51-7.54A5.31,5.31,0,0,1,1405.33,1008.74Z" transform="translate(-153.9 -137.59)"/><path class="cls-5" d="M1376.51,952c-.7,4-10.47,8.62-17.32,10.54a7.11,7.11,0,0,1-3.88.13c-1.69-6.16-3.41-12.4-5.13-18.55,5.11-4,14-7,14-7C1370.7,934.36,1377.2,947.93,1376.51,952Z" transform="translate(-153.9 -137.59)"/><path class="cls-5" d="M1375.8,931.9h0a33.17,33.17,0,0,1-3.07,5c-1.22,1.9-5-3.43-5-3.43s-2.07-3-.8-4.25c.94-1,4.32-1.78,6.76-1.38C1374.35,929.21,1375.07,930.56,1375.8,931.9Z" transform="translate(-153.9 -137.59)"/><path class="cls-5" d="M1357.62,928s6.22-.2,6.65,1,2,5.09.65,5.86-11.54,6.65-13.14,5.31-1.48-8.67.89-10.67A6.52,6.52,0,0,1,1357.62,928Z" transform="translate(-153.9 -137.59)"/><path class="cls-5" d="M1361.07,904.38a54.72,54.72,0,0,1-6.93,8.6c-4.27,4.27-8.19,1.53-13.32-2h0c-1.08-3.82-2.11-7.42-3.06-10.72,2.73-5.73,8.2-11.84,8.2-11.84,1.37-1.73,3.5-2.09,5.83-1.64C1354.46,891.86,1357.61,897.84,1361.07,904.38Z" transform="translate(-153.9 -137.59)"/><path class="cls-5" d="M1347,928a6.19,6.19,0,0,1-1.21.51c-1.4-5-2.76-9.74-4-14.25a70.67,70.67,0,0,1,7.18,5.25C1351,921.12,1351.06,925.85,1347,928Z" transform="translate(-153.9 -137.59)"/><path class="cls-5" d="M1368.21,917.81c-4.94.07-8.37-1.63-9.75-4.07-.84-1.48,1.14-4.42,3.69-7.33C1364.08,910.06,1366.12,913.88,1368.21,917.81Z" transform="translate(-153.9 -137.59)"/><path class="cls-5" d="M1362.45,921.22s-5.11-6.68-6.88-6-5.26,2.75-4.39,4.29.15,5.53,3.1,5.56S1363.49,922.51,1362.45,921.22Z" transform="translate(-153.9 -137.59)"/><path class="cls-5" d="M1348.86,936.45c0,.27-.3.37-.72.35q-.95-3.37-1.88-6.68a9,9,0,0,1,2.06.54C1349.46,931.11,1348.86,936.45,1348.86,936.45Z" transform="translate(-153.9 -137.59)"/><path class="cls-5" d="M1350.76,884.76a20.65,20.65,0,0,1-3.44-1.22s-3.25-1.55-2.79-3.31a7,7,0,0,1,2.39-2.86C1348,879.51,1349.32,882,1350.76,884.76Z" transform="translate(-153.9 -137.59)"/><path class="cls-5" d="M1345.58,886.07c-.83,1.32-6.5,11-8.69,11.09-1.37-4.75-2.53-8.77-3.4-11.81a6.3,6.3,0,0,1,2.33-1.71s5.33-3.23,6.31-2.36S1346.42,884.72,1345.58,886.07Z" transform="translate(-153.9 -137.59)"/><path class="cls-5" d="M1386.31,1020.71c-2.17,2.49-9.59,2.22-16,1-.93-4.84-2.65-12.14-4.88-20.92,6.29-1.87,18,.72,18,.72C1390.48,1002.64,1389,1017.61,1386.31,1020.71Z" transform="translate(-153.9 -137.59)"/><path class="cls-5" d="M1388.34,1000.35s.51,6.55,2.54,5.55,7.39-2.89,6.75-5.45-6-4.61-7.78-4.15S1388.34,1000.35,1388.34,1000.35Z" transform="translate(-153.9 -137.59)"/><path class="cls-5" d="M1382.61,990.39s5.43,3.05,5.15,4.33-.89,5.42-2.48,5.35-13.32-.3-14-2.28,3.22-8.17,6.28-8.65A6.5,6.5,0,0,1,1382.61,990.39Z" transform="translate(-153.9 -137.59)"/><path class="cls-5" d="M1362.87,986.18c-.28.13-.64.32-1.06.55-.88-3.32-1.79-6.76-2.74-10.26C1362.74,977.2,1364.44,985.51,1362.87,986.18Z" transform="translate(-153.9 -137.59)"/><path class="cls-5" d="M1398,971.9a53.56,53.56,0,0,1-10.62,3.87c-6.91,1.69-8.37-4.67-11.75-11.8-2.17-4.58,5.64-8.83,11.53-11.29C1390.83,959.22,1394.47,965.69,1398,971.9Z" transform="translate(-153.9 -137.59)"/><path class="cls-5" d="M1379.58,978.66s-5-14.88-9.87-15.95-11,8.53-8.66,12.78,7.91,9.16,12.48,9.43S1380.47,981.09,1379.58,978.66Z" transform="translate(-153.9 -137.59)"/><path class="cls-5" d="M1409.36,991.16a52.4,52.4,0,0,1-5.66-1.21c-8.85-2.36-13.11-7.27-13-11.29.06-1.92,4.18-3.59,8.45-4.81C1402.67,980,1406.1,985.79,1409.36,991.16Z" transform="translate(-153.9 -137.59)"/><path class="cls-5" d="M1390.23,987.13s-.9-8.37-2.78-8.67-5.92-.38-6,1.38-2.74,4.82-.23,6.37S1390.45,988.77,1390.23,987.13Z" transform="translate(-153.9 -137.59)"/><path class="cls-5" d="M1370.72,993.11s3.28-4.27,2.54-5.24-2.57-2.79-3.38-2-3.39,1-2.92,2.84S1370.09,994,1370.72,993.11Z" transform="translate(-153.9 -137.59)"/><path class="cls-5" d="M1401.88,999.59s3.28-4.27,2.54-5.24-2.57-2.79-3.37-2-3.4,1-2.93,2.84S1401.25,1000.44,1401.88,999.59Z" transform="translate(-153.9 -137.59)"/><path class="cls-5" d="M1386.74,951.86c-2.71,1.15-5.29,2-6,1.34-1.51-1.35-1.22-8.24,1-10.42Q1384.22,947.33,1386.74,951.86Z" transform="translate(-153.9 -137.59)"/><path class="cls-5" d="M1383.84,1032.77c.34,1.37,2.11,5,1.16,6.45s-4.54,4.21-5.84,3.29-4.76-5-3.73-7.93S1383.5,1031.41,1383.84,1032.77Z" transform="translate(-153.9 -137.59)"/><path class="cls-5" d="M1321.09,856s-2.26-8.83-16.06-8.15c0,0,1.13,12.9,12.22,15.16Z" transform="translate(-153.9 -137.59)"/><path class="cls-5" d="M1342.24,856s2.26-8.83,16.06-8.15c0,0-1.13,12.9-12.21,15.16Z" transform="translate(-153.9 -137.59)"/><path class="cls-5" d="M1321.09,856s3.62-6.11,6.79-6.11,9.92-.77,12.66,1.58,6.79,9.95,6.11,14.48-6.11,17.19-7,22.62-2.71,8.14-10.18,7-5-9.27-5.65-11.08-8.46-18-6.56-21.49Z" transform="translate(-153.9 -137.59)"/><path class="cls-5" d="M1321.09,856s3.79-17.2,6.84-17.71-.67,8.88,2.55,8.85,4.24-3.25,4.24-7.49,3.39-2.86,4.58.68,2.94,15.67,2.94,15.67l-19.74-.59Z" transform="translate(-153.9 -137.59)"/><path class="cls-14" d="M1134.48,1115.86a40.85,40.85,0,0,0,3.28,5c.41.55.84,1.09,1.29,1.63a74.54,74.54,0,0,0,8.09,8.39c1.71,1.53,3.5,3,5.35,4.47,2.11,1.65,4.3,3.23,6.53,4.74l.43.29c1,.71,2.11,1.39,3.17,2a114.66,114.66,0,0,0,11.07,6.13c1.67.81,3.33,1.55,5,2.21l.15.06a36.2,36.2,0,0,0,11.37,2.43c1.07.07,2.16.1,3.27.1a66.14,66.14,0,0,0,10.89-1c1.13-.2,2.26-.41,3.39-.65,1.8-.38,3.61-.82,5.4-1.32l.74-.2c.81-.23,1.61-.47,2.42-.72,2.53-.79,5-1.67,7.44-2.63,1.6-.63,3.18-1.29,4.71-2,.46-.2.93-.42,1.39-.64a90.32,90.32,0,0,0,9.4-5,52.83,52.83,0,0,0,9-6.76c.66-.66,1.26-1.3,1.77-1.92a28.38,28.38,0,0,0,3.9-6.55,39.41,39.41,0,0,0,1.76-5c.09-.34.14-.51.14-.51a56,56,0,0,0,1.68-9.85c.72-8.36-.19-16.28-1.32-20.36-2.2-7.93,1.32-15.42,1.76-29.06a38.17,38.17,0,0,1,.73-5.12c.91-4.71,2.59-11.81,4.75-20.36,1.07-4.25,2.27-8.85,3.54-13.7.86-3.23,1.75-6.57,2.67-10,1.18-4.38,2.41-8.9,3.66-13.45,1.64-6,3.32-12.07,5-18.06.67-2.38,1.34-4.75,2-7.09s1.23-4.36,1.83-6.5h0c.15-.53.3-1,.44-1.57,1.36-4.82,2.68-9.48,3.93-13.87h0l.92-3.22h0l3-10.43c.29-1,.57-2,.85-3,.2-.71.41-1.41.6-2.09,1.07-3.73,2-6.9,2.71-9.4,1.13-3.9,1.77-6.13,1.77-6.13L1286,904.77s-.83,1.62-2.32,4.5c-.63,1.22-1.37,2.68-2.23,4.33-1.08,2.09-2.34,4.5-3.74,7.19-.32.63-.66,1.26-1,1.92-2.61,5-5.66,10.81-9,17.17-.35.66-.69,1.32-1.05,2-1.88,3.56-3.87,7.28-5.91,11.1-1.71,3.2-3.47,6.48-5.27,9.8l-2.11,3.91h0q-2.85,5.25-5.77,10.58-2.43,4.41-4.88,8.83c-.15.27-.29.54-.44.8-3.53,6.37-7.08,12.66-10.55,18.71l-1.08,1.9c-3.43,5.94-6.77,11.62-9.94,16.84-8.12,13.4-15.12,23.84-19.55,28.27-18.92,18.92-63.4,30.81-69.12,48C1130.39,1105.33,1131.53,1110.56,1134.48,1115.86Z" transform="translate(-153.9 -137.59)"/><path class="cls-5" d="M1127.83,1138.27h0c2.33,19.61,7.56,40.08,8.1,45.53,1,9.91-3.3,20.8-4.68,25.09-1,3,3.88,37.83,6.87,58.46h10.35c-2.28-13.09-5-31.71-4.18-43,.84-11.94,3.77-28.23,7.92-45.15v0c2.44-9.93,5.29-20.08,8.38-29.69.75-2.33,1.43-4.68,2-7,.25-.94.48-1.87.71-2.82.36-1.53.7-3.07,1-4.6.5-2.49,1-5,1.33-7.35.12-.7.23-1.39.33-2.09h0c.44-3,.79-5.88,1.07-8.6a20.2,20.2,0,0,0-2.66-12.45c-.26-.44-.55-.89-.84-1.3a16,16,0,0,0-1-1.37,20.77,20.77,0,0,0-4.93-4.33,20.42,20.42,0,0,0-16.89-2.45,20,20,0,0,0-8,4.79c-.25.24-.48.47-.72.73h0c-2.59,2.71-4.07,7.12-4.76,12.52l0,.33c-.14,1.14-.25,2.31-.33,3.53a.34.34,0,0,1,0,.1A122.27,122.27,0,0,0,1127.83,1138.27Z" transform="translate(-153.9 -137.59)"/><path class="cls-5" d="M1200.65,1267.36h8.08c.53-12.6,1.75-37.34,3.66-50.75,1.07-7.44,5.56-26,10.55-45.55v0c1.94-7.6,4-15.36,5.87-22.65v0c.09-.37.19-.74.28-1.11.14-.54.29-1.09.43-1.62a10.71,10.71,0,0,0-.21-6.33,9.08,9.08,0,0,0-.62-1.43,11,11,0,0,0-7.94-5.65,10.41,10.41,0,0,0-8.79,2.62l-4.35,3.86a9.22,9.22,0,0,0-3.06,6.56l0,1.33-.2,5.81-.11,3.55Z" transform="translate(-153.9 -137.59)"/><path class="cls-5" d="M1219.85,1267.36h8.08c.53-12.6,1.75-37.34,3.66-50.75,2.24-15.57,17.86-74.53,22.74-92.73.63-2.4,1.09-4.1,1.31-4.88.09-.34.13-.52.13-.52l-4.72,3.39h0l-2.74,2-1.09.78-1.71,1.22-5.13,3.67-2.43,1.73,0,0-4.84,3.48h0l-3.55,2.52-.82.6-1.76,1.27-2,1.41-1.07.77-.18,5.56-.16,4.81-.61,19.34v0Z" transform="translate(-153.9 -137.59)"/><path class="cls-5" d="M1152.11,1214.52c0,1.52,13.16,36.81,19.17,52.84h10.17c-5.72-13.65-16.8-41.83-17.78-57.14-.88-13.63,8.57-41.76,15.12-59.38l.09-.25a9,9,0,0,0-10.23-12l-5.32,1-3.88.77-.45.09-7,1.39s0,4.19.09,10.35v1.54c0,2.61,0,5.5.06,8.55,0,5.43.07,11.33.09,16.84,0,10.64,0,19.84-.1,21.5C1151.78,1205,1152.11,1212.53,1152.11,1214.52Z" transform="translate(-153.9 -137.59)"/><path class="cls-5" d="M1127.21,1113.13s-3.83,45.91-10.43,62.75h3.3s8.94-32.85,8.59-50C1128.41,1113.73,1127.21,1113.13,1127.21,1113.13Z" transform="translate(-153.9 -137.59)"/><path class="cls-24" d="M1111.83,1184.47a13,13,0,0,0,2.64-8.59c-.17-5.44,5.78-7.1,7.59-2.31S1115.13,1183.81,1111.83,1184.47Z" transform="translate(-153.9 -137.59)"/><path class="cls-5" d="M1205.05,1079.7s-4.85,13.71-8.59,12.91-13.43.08-12.77-4.11,5.07-8.14,9.25-8.8S1205.79,1077.75,1205.05,1079.7Z" transform="translate(-153.9 -137.59)"/><path class="cls-5" d="M1181.49,1092.61s10.24.08,8.92,1.73-6.11,7.2-8.92,6.4S1178.87,1092.52,1181.49,1092.61Z" transform="translate(-153.9 -137.59)"/><path class="cls-5" d="M1215.5,1109.69s8.09-9.57,12.06-8.91,5.61,9.57,2.64,12-8.59,4.46-12,3.3S1214.12,1111.24,1215.5,1109.69Z" transform="translate(-153.9 -137.59)"/><path class="cls-5" d="M1232.91,1129.38s-4.6-11.66-2.14-14.84,11.09-.4,11.86,3.39-.14,9.67-2.8,12.18S1233.61,1131.33,1232.91,1129.38Z" transform="translate(-153.9 -137.59)"/><path class="cls-5" d="M1245.38,1119.67a4.62,4.62,0,0,0,2.91,4.17l.43.16a7.26,7.26,0,0,0,2.24.33,13.09,13.09,0,0,0,2.91-.34l.45-.11c.64-2.4,1.1-4.1,1.31-4.89.09-.34.14-.51.14-.51a56,56,0,0,0,1.68-9.85c-4.14.38-11.37,8.93-11.37,8.93A3.16,3.16,0,0,0,1245.38,1119.67Z" transform="translate(-153.9 -137.59)"/><path class="cls-5" d="M1211.57,1116.44s10,7.61,9.5,11.6-9.28,6.08-11.9,3.23-4.88-8.35-3.9-11.87S1210,1115.14,1211.57,1116.44Z" transform="translate(-153.9 -137.59)"/><path class="cls-5" d="M1229.31,1132.53s8.36-12.43,13.15-12.16,7.93,10.64,4.72,14-9.62,6.42-13.89,5.5S1227.87,1134.55,1229.31,1132.53Z" transform="translate(-153.9 -137.59)"/><path class="cls-5" d="M1219.6,1135.81s10,7.61,9.5,11.6-9.29,6.08-11.91,3.23-4.87-8.35-3.89-11.87S1218,1134.5,1219.6,1135.81Z" transform="translate(-153.9 -137.59)"/><path class="cls-5" d="M1195.26,1128.52s-6.85-10.5-5.07-14.11,10.79-2.61,12.3.94,1.8,9.51-.31,12.5S1196.34,1130.29,1195.26,1128.52Z" transform="translate(-153.9 -137.59)"/><path class="cls-5" d="M1206.19,1138.61s-8.81,8.92-12.71,8-4.85-10-1.69-12.22,8.9-3.78,12.27-2.35S1207.69,1137.18,1206.19,1138.61Z" transform="translate(-153.9 -137.59)"/><path class="cls-5" d="M1193.43,1153.37a66.14,66.14,0,0,0,10.89-1l-.11,3.55c1.58-1.39,2.66-2.48,2.66-2.48a3.11,3.11,0,0,0,.84-1.72,4.75,4.75,0,0,0-3-5.09l-.16-.07c-3.37-1.31-8.92.13-12.17,2.3a2.9,2.9,0,0,0-.29.19,5.74,5.74,0,0,0-1.89,4.19C1191.23,1153.34,1192.32,1153.37,1193.43,1153.37Z" transform="translate(-153.9 -137.59)"/><path class="cls-5" d="M1173.69,1148.57c1.67.81,3.33,1.55,5,2.21l.15.06a36.2,36.2,0,0,0,11.37,2.43c1.07.07,2.16.1,3.27.1a21.66,21.66,0,0,0-1.09-4.48,21.29,21.29,0,0,0-3.38-6.26c-3.17-3.91-14.78-1.9-15.7,3.24A5,5,0,0,0,1173.69,1148.57Z" transform="translate(-153.9 -137.59)"/><path class="cls-5" d="M1196,1096s12.33,7.4,11.23,10.42-5.73,5.39-13,4.53-13.43-3.12-11.45-7.39S1192.79,1093.9,1196,1096Z" transform="translate(-153.9 -137.59)"/><path class="cls-5" d="M1205.09,1112.83s3.15-5.94,4.64-5.61,4.5,1.47,4,2.8.61,4.38-1.71,4.79S1204.44,1114,1205.09,1112.83Z" transform="translate(-153.9 -137.59)"/><path class="cls-5" d="M1242.5,1124.11s3.14-5.94,4.63-5.61,4.51,1.47,4,2.8.6,4.38-1.71,4.79S1241.85,1125.26,1242.5,1124.11Z" transform="translate(-153.9 -137.59)"/><path class="cls-5" d="M1159,1140.12s-.39,13.26-5.11,12.41-8.69-.7-8.79-5,.82-10.82,3-11.94S1159.41,1135.82,1159,1140.12Z" transform="translate(-153.9 -137.59)"/><path class="cls-5" d="M1144.66,1152.56s9.51.55,10.92,3.26-3.26,7.78-6.12,7.1-6.63-3.18-7.51-5.81S1143.09,1152.43,1144.66,1152.56Z" transform="translate(-153.9 -137.59)"/><path class="cls-5" d="M1144.1,1134.46s1.12,10.88-1.21,11.58-5.89-1-8.69-5.82-4.23-9.59-.73-10.33S1143.89,1131.55,1144.1,1134.46Z" transform="translate(-153.9 -137.59)"/><path class="cls-5" d="M1138,1147.67s5-.8,5.53.25,1.16,3.41.13,3.73-2.38,2.36-3.69,1.14S1137,1147.8,1138,1147.67Z" transform="translate(-153.9 -137.59)"/><path class="cls-5" d="M1220.44,1117.71s6.63-1.11,7.28.27,1.57,4.47.22,4.9-3.11,3.14-4.84,1.56S1219.13,1117.9,1220.44,1117.71Z" transform="translate(-153.9 -137.59)"/><path class="cls-5" d="M1218.76,1135.27s5.83-9.63,8.28-8.93,7.39,2.89,6.46,5.06.6,7.38-3.31,7.85S1217.57,1137.14,1218.76,1135.27Z" transform="translate(-153.9 -137.59)"/><path class="cls-5" d="M1213.88,1150.24s6.94,4.13,6.45,5.89-2,5.32-3.59,4.66-5.29.47-5.65-2.33S1212.54,1149.4,1213.88,1150.24Z" transform="translate(-153.9 -137.59)"/><path class="cls-5" d="M1209.67,1169.94s1.09-8,2.9-8.25,5.68-.21,5.69,1.49,2.5,4.68.06,6.11S1209.42,1171.5,1209.67,1169.94Z" transform="translate(-153.9 -137.59)"/><path class="cls-5" d="M1196.73,1068.62s-4.78,1.39-4.8,2.43-.29,4.38,1,4.62,10.42,2.2,11.3.78-1-7-3.31-7.88A5.22,5.22,0,0,0,1196.73,1068.62Z" transform="translate(-153.9 -137.59)"/><path class="cls-5" d="M1198.66,1060.26s-3.82,1.1-3.84,1.94-.23,3.5.76,3.68,8.32,1.76,9,.63-.81-5.55-2.64-6.3A4.14,4.14,0,0,0,1198.66,1060.26Z" transform="translate(-153.9 -137.59)"/><path class="cls-5" d="M1223.73,1092.61c.36,1.31.61,5.28,2.09,6s5.86,1.4,6.53,0,1.63-6.52-.63-8.5S1223.36,1091.29,1223.73,1092.61Z" transform="translate(-153.9 -137.59)"/><path class="cls-5" d="M1244.22,1087.29c.94,1,3,4.39,4.67,4.35s5.84-1.5,5.76-3-1.59-6.54-4.52-7.23S1243.28,1086.29,1244.22,1087.29Z" transform="translate(-153.9 -137.59)"/><path class="cls-5" d="M1233,1102.65c.48,1.74.8,7,2.76,7.93s7.72,1.85,8.59,0,2.15-8.58-.83-11.19S1232.52,1100.92,1233,1102.65Z" transform="translate(-153.9 -137.59)"/><path class="cls-5" d="M1169.17,1105.08s13.64,10.89,9,15.19-7.6,8.58-12.22,5.28-10.73-9.41-10.15-12.63S1165,1101.26,1169.17,1105.08Z" transform="translate(-153.9 -137.59)"/><path class="cls-5" d="M1170.92,1130s8.09-9.58,12.06-8.92,5.61,9.58,2.64,12.06-8.59,4.45-12,3.3S1169.54,1131.55,1170.92,1130Z" transform="translate(-153.9 -137.59)"/><path class="cls-5" d="M1151.44,1116.3s12.33,7.41,11.23,10.42-5.73,5.4-13,4.54-13.43-3.13-11.45-7.39S1148.21,1114.22,1151.44,1116.3Z" transform="translate(-153.9 -137.59)"/><path class="cls-5" d="M1137.75,1120.89s-2.53,6.46-4,6.18-3-2.29-3.2-5.82.4-6.63,2.59-6S1138.48,1119.18,1137.75,1120.89Z" transform="translate(-153.9 -137.59)"/><path class="cls-5" d="M1144.35,1099.17s14.32,1.26,14.65,4.45-2.78,7.36-9.68,9.77-13.44,3.07-13.53-1.63S1140.53,1098.72,1144.35,1099.17Z" transform="translate(-153.9 -137.59)"/><path class="cls-5" d="M1160.51,1133.15s3.15-6,4.64-5.62,4.5,1.47,4,2.8.61,4.38-1.71,4.8S1159.86,1134.3,1160.51,1133.15Z" transform="translate(-153.9 -137.59)"/><path class="cls-5" d="M1167.46,1101.44s-4.32,3-4.72,1.22-1.91-6.06,0-6.94,5.89,1.43,6.48,2.75S1167.46,1101.44,1167.46,1101.44Z" transform="translate(-153.9 -137.59)"/><path class="cls-5" d="M1161.89,1085.44s-1.87,4-2.91,2.88-4-3.58-3-5,4.88-1.46,5.88-.75S1161.89,1085.44,1161.89,1085.44Z" transform="translate(-153.9 -137.59)"/><path class="cls-5" d="M1176.54,1100s-4.63-1.84-5.29-1-2.92,3.28-2.08,4.23,6.87,8.14,8.44,7.56,3.47-6.11,2.23-8.25A5.19,5.19,0,0,0,1176.54,1100Z" transform="translate(-153.9 -137.59)"/><path class="cls-5" d="M1179.14,1112.92c.37,1.32.62,5.28,2.1,6s5.86,1.4,6.52,0,1.64-6.53-.62-8.51S1178.78,1111.6,1179.14,1112.92Z" transform="translate(-153.9 -137.59)"/><path class="cls-5" d="M1164,1085.73s11.75-4.38,14.88-1.86.19,11.1-3.61,11.8-9.67-.32-12.12-3S1162.08,1086.4,1164,1085.73Z" transform="translate(-153.9 -137.59)"/><path class="cls-5" d="M1142.83,1090.71s11.75-4.37,14.88-1.85.19,11.09-3.61,11.79-9.67-.32-12.13-3S1140.87,1091.38,1142.83,1090.71Z" transform="translate(-153.9 -137.59)"/><path class="cls-5" d="M1175.05,1073.06s9.77-3.64,12.37-1.54.17,9.23-3,9.81-8-.27-10.08-2.52S1173.41,1073.62,1175.05,1073.06Z" transform="translate(-153.9 -137.59)"/><path class="cls-5" d="M1213.75,1084.76s13.64,10.9,9,15.19-7.6,8.59-12.22,5.28-10.73-9.4-10.15-12.62S1209.55,1081,1213.75,1084.76Z" transform="translate(-153.9 -137.59)"/><path class="cls-5" d="M1212,1081.13s-4.32,3-4.72,1.21-1.91-6,0-6.93,5.89,1.43,6.49,2.75S1212,1081.13,1212,1081.13Z" transform="translate(-153.9 -137.59)"/><path class="cls-5" d="M1221.12,1079.7s-4.63-1.85-5.29-1-2.92,3.27-2.08,4.23,6.87,8.14,8.44,7.56,3.47-6.11,2.23-8.26A5.2,5.2,0,0,0,1221.12,1079.7Z" transform="translate(-153.9 -137.59)"/><path class="cls-5" d="M1254.45,1103.5s-1.57-4.73-2.62-4.71-4.38-.13-4.57,1.13-1.8,10.5-.35,11.33,6.9-1.29,7.75-3.62A5.18,5.18,0,0,0,1254.45,1103.5Z" transform="translate(-153.9 -137.59)"/><path class="cls-5" d="M1233.63,1089.87c.37,1.31.61,5.28,2.1,6s5.86,1.4,6.52,0,1.64-6.52-.62-8.5S1233.27,1088.55,1233.63,1089.87Z" transform="translate(-153.9 -137.59)"/><path class="cls-5" d="M1240.63,1053.11s6.54,16.18.41,17.66-10.83,3.75-13.24-1.39-4.74-13.46-2.65-16S1238.84,1047.72,1240.63,1053.11Z" transform="translate(-153.9 -137.59)"/><path class="cls-5" d="M1229.93,1075.69s11.75-4.37,14.88-1.85.19,11.09-3.61,11.79-9.67-.32-12.13-3S1228,1076.36,1229.93,1075.69Z" transform="translate(-153.9 -137.59)"/><path class="cls-5" d="M1219.67,1054.2s7.12,12.5,4.68,14.58-7.64,1.9-13.54-2.42-10.17-9.31-6.36-12S1217.88,1050.79,1219.67,1054.2Z" transform="translate(-153.9 -137.59)"/><path class="cls-5" d="M1219.32,1073.32s5.66-3.64,6.79-2.62,3.21,3.5,2.14,4.42-1.62,4.11-3.85,3.34S1218.19,1074,1219.32,1073.32Z" transform="translate(-153.9 -137.59)"/><path class="cls-5" d="M1225.39,1088.46s1-4.18,2-4.21,3,.2,2.94,1.1,1.07,2.61-.3,3.24S1225.17,1089.28,1225.39,1088.46Z" transform="translate(-153.9 -137.59)"/><path class="cls-5" d="M1243.66,1097.33s1-4.18,2-4.21,3,.2,2.94,1.1,1.07,2.62-.3,3.24S1243.44,1098.15,1243.66,1097.33Z" transform="translate(-153.9 -137.59)"/><path class="cls-5" d="M1254.19,1099.3s-2.12-2.19-1.77-2.78,1.27-1.73,1.77-1.34,2,.35,1.83,1.41S1254.59,1099.74,1254.19,1099.3Z" transform="translate(-153.9 -137.59)"/><path class="cls-5" d="M1251.19,1096.24s-2.11-2.19-1.76-2.79,1.26-1.73,1.77-1.34,2,.36,1.82,1.41S1251.6,1096.68,1251.19,1096.24Z" transform="translate(-153.9 -137.59)"/><path class="cls-5" d="M1205.73,1072.33s1-4.18,2-4.22,3,.2,2.94,1.1,1.07,2.62-.3,3.24S1205.51,1073.15,1205.73,1072.33Z" transform="translate(-153.9 -137.59)"/><path class="cls-5" d="M1229.42,1041.34s-5.23.47-4.71-1.26,1.3-6.21,3.4-6,4.43,4.13,4.3,5.58S1229.42,1041.34,1229.42,1041.34Z" transform="translate(-153.9 -137.59)"/><path class="cls-5" d="M1224.56,1041.45s-3.94-3-4.8-2.43-3.7,2.35-3.15,3.5,4.39,9.7,6.05,9.58,5-4.94,4.4-7.34A5.21,5.21,0,0,0,1224.56,1041.45Z" transform="translate(-153.9 -137.59)"/><path class="cls-5" d="M1252.61,986.2c.68,3.92,10.19,8.39,16.86,10.26a6.9,6.9,0,0,0,3.77.13c1.64-6,3.32-12.07,5-18.06-5-3.93-13.57-6.85-13.57-6.85C1258.26,969.06,1251.94,982.27,1252.61,986.2Z" transform="translate(-153.9 -137.59)"/><path class="cls-5" d="M1253.3,966.67h0a33,33,0,0,0,3,4.9c1.18,1.85,4.91-3.34,4.91-3.34s2-2.88.79-4.14c-.92-.94-4.21-1.74-6.58-1.34Z" transform="translate(-153.9 -137.59)"/><path class="cls-5" d="M1271,962.84s-6.06-.2-6.48,1-2,5-.63,5.71,11.23,6.48,12.79,5.16,1.44-8.43-.87-10.37A6.27,6.27,0,0,0,1271,962.84Z" transform="translate(-153.9 -137.59)"/><path class="cls-5" d="M1267.64,939.88a52.79,52.79,0,0,0,6.74,8.38c4.16,4.15,8,1.49,13-2h0l3-10.43c-2.66-5.58-8-11.52-8-11.52-1.33-1.68-3.41-2-5.67-1.6C1274.06,927.7,1271,933.52,1267.64,939.88Z" transform="translate(-153.9 -137.59)"/><path class="cls-5" d="M1281.31,962.87a7.31,7.31,0,0,0,1.18.49c1.36-4.82,2.68-9.48,3.93-13.87a70.74,70.74,0,0,0-7,5.11C1277.46,956.18,1277.38,960.79,1281.31,962.87Z" transform="translate(-153.9 -137.59)"/><path class="cls-5" d="M1260.68,953c4.81.07,8.15-1.59,9.5-4,.81-1.44-1.11-4.31-3.59-7.14C1264.71,945.42,1262.72,949.14,1260.68,953Z" transform="translate(-153.9 -137.59)"/><path class="cls-5" d="M1266.3,956.28s5-6.51,6.69-5.81,5.12,2.67,4.28,4.17-.16,5.38-3,5.42S1265.29,957.53,1266.3,956.28Z" transform="translate(-153.9 -137.59)"/><path class="cls-5" d="M1279.52,971.1c0,.26.29.36.7.34.61-2.19,1.23-4.36,1.83-6.5a8.74,8.74,0,0,0-2,.52C1278.94,965.9,1279.52,971.1,1279.52,971.1Z" transform="translate(-153.9 -137.59)"/><path class="cls-5" d="M1277.67,920.79a19.91,19.91,0,0,0,3.35-1.19s3.16-1.5,2.71-3.21a6.79,6.79,0,0,0-2.32-2.79C1280.33,915.69,1279.07,918.1,1277.67,920.79Z" transform="translate(-153.9 -137.59)"/><path class="cls-5" d="M1282.72,922.07c.8,1.28,6.32,10.67,8.45,10.79,1.33-4.63,2.46-8.54,3.31-11.49a6,6,0,0,0-2.27-1.66s-5.19-3.15-6.15-2.3S1281.9,920.76,1282.72,922.07Z" transform="translate(-153.9 -137.59)"/><path class="cls-5" d="M1243.07,1053.09c2.11,2.43,9.34,2.17,15.55,1,.91-4.71,2.59-11.81,4.75-20.36-6.11-1.82-17.53.71-17.53.71C1239,1035.51,1240.46,1050.08,1243.07,1053.09Z" transform="translate(-153.9 -137.59)"/><path class="cls-5" d="M1241.09,1033.28s-.49,6.37-2.46,5.41-7.2-2.82-6.57-5.31,5.86-4.48,7.56-4S1241.09,1033.28,1241.09,1033.28Z" transform="translate(-153.9 -137.59)"/><path class="cls-5" d="M1246.68,1023.59s-5.29,3-5,4.22.87,5.27,2.42,5.2,13-.29,13.61-2.21-3.13-8-6.12-8.43A6.27,6.27,0,0,0,1246.68,1023.59Z" transform="translate(-153.9 -137.59)"/><path class="cls-5" d="M1265.88,1019.5c.27.12.63.31,1,.53.86-3.23,1.75-6.57,2.67-10C1266,1010.75,1264.36,1018.84,1265.88,1019.5Z" transform="translate(-153.9 -137.59)"/><path class="cls-5" d="M1231.66,1005.6a53.38,53.38,0,0,0,10.35,3.77c6.71,1.64,8.14-4.55,11.43-11.49,2.11-4.46-5.5-8.59-11.23-11C1238.68,993.26,1235.13,999.55,1231.66,1005.6Z" transform="translate(-153.9 -137.59)"/><path class="cls-5" d="M1249.62,1012.17s4.83-14.48,9.61-15.52,10.67,8.3,8.42,12.44-7.7,8.92-12.14,9.17S1248.75,1014.54,1249.62,1012.17Z" transform="translate(-153.9 -137.59)"/><path class="cls-5" d="M1220.64,1024.34a52.07,52.07,0,0,0,5.51-1.18c8.61-2.29,12.76-7.08,12.65-11-.06-1.88-4.07-3.5-8.22-4.68C1227.15,1013.44,1223.81,1019.12,1220.64,1024.34Z" transform="translate(-153.9 -137.59)"/><path class="cls-5" d="M1239.26,1020.42s.88-8.15,2.7-8.44,5.77-.37,5.83,1.35,2.66,4.68.22,6.19S1239,1022,1239.26,1020.42Z" transform="translate(-153.9 -137.59)"/><path class="cls-5" d="M1258.25,1026.24s-3.19-4.16-2.48-5.1,2.5-2.72,3.29-1.95,3.3,1,2.84,2.76S1258.86,1027.07,1258.25,1026.24Z" transform="translate(-153.9 -137.59)"/><path class="cls-5" d="M1227.92,1032.54s-3.19-4.15-2.48-5.1,2.51-2.71,3.29-2,3.3,1,2.85,2.77S1228.53,1033.38,1227.92,1032.54Z" transform="translate(-153.9 -137.59)"/><path class="cls-5" d="M1242.65,986.09c2.65,1.13,5.16,1.94,5.86,1.31,1.46-1.31,1.18-8-1-10.14Q1245.1,981.67,1242.65,986.09Z" transform="translate(-153.9 -137.59)"/><path class="cls-5" d="M1245.48,1064.84c-.33,1.32-2.06,4.9-1.13,6.28s4.42,4.09,5.68,3.19,4.63-4.88,3.63-7.71S1245.81,1063.51,1245.48,1064.84Z" transform="translate(-153.9 -137.59)"/><path class="cls-5" d="M1306.54,892.78s2.2-8.59,15.63-7.93c0,0-1.1,12.55-11.88,14.75Z" transform="translate(-153.9 -137.59)"/><path class="cls-5" d="M1286,892.78s-2.2-8.59-15.63-7.93c0,0,1.1,12.55,11.89,14.75Z" transform="translate(-153.9 -137.59)"/><path class="cls-5" d="M1306.54,892.78s-3.52-5.94-6.6-5.94-9.66-.75-12.33,1.54-6.6,9.68-5.94,14.09,5.94,16.73,6.82,22,2.64,7.93,9.91,6.82,4.84-9,5.5-10.78,8.23-17.56,6.39-20.92S1306.54,892.78,1306.54,892.78Z" transform="translate(-153.9 -137.59)"/><path class="cls-5" d="M1306.54,892.78s-3.68-16.73-6.66-17.23.66,8.64-2.47,8.62-4.13-3.17-4.13-7.3-3.3-2.78-4.46.67-2.86,15.24-2.86,15.24l19.21-.57Z" transform="translate(-153.9 -137.59)"/><path class="cls-6" d="M604.65,1281.51s19.53-58.69,82.7-61,64.33,32.16,105.68,24.12,63.18-14.93,93,1.15,129.8,14.36,130.66,29S581.1,1302,604.65,1281.51Z" transform="translate(-153.9 -137.59)"/><path class="cls-6" d="M480,1267c.51,7.23-188.26,13.72-283,11.31q-1.58-3.73-3.09-7.52-6.74-16.86-12.4-34.12a84.35,84.35,0,0,1,30.59-6.41c51.39-1.55,52.31,21.78,86,16.33s51.38-10.11,75.67.78S479.28,1257.12,480,1267Z" transform="translate(-153.9 -137.59)"/><path class="cls-22" d="M2144.37,1685.3l-40.15-4.86s-12.1-33.85-42.6-120.29c-9.19-26.09-20.07-57-32.79-93.18-54.88-156.07-70.54-244.31-70.54-244.31l146.18-72.45S2093.58,1359.46,2119,1438c8.82,27.26,14.57,65.38,18.33,103.53C2144.4,1613.33,2144.37,1685.3,2144.37,1685.3Z" transform="translate(-153.9 -137.59)"/><path class="cls-18" d="M2051.2,1445.86c4.68,34.31,1.08,82.42-4.67,126.71-8,61.23-20,115.16-20,115.16l-40.15-4.85s-1.38-32.34-12.29-112.88c-4.12-30.14-9.55-67-16.75-111.52-26.45-163.31-27.25-296.75-27.25-296.75l160.57,1.89S2040,1364.08,2051.2,1445.86Z" transform="translate(-153.9 -137.59)"/><path class="cls-15" d="M2105.86,1146.11l12.42,203.4s-37.45,17.16-71.93-4.41S2105.86,1146.11,2105.86,1146.11Z" transform="translate(-153.9 -137.59)"/><path class="cls-13" d="M1934.19,1122.61S1927,1188,1926,1217.47,1940.08,1370,1940.08,1370s54.29,21.19,125.48-2.86c0,0,54.5-180.15,37.13-253.74Z" transform="translate(-153.9 -137.59)"/><path class="cls-25" d="M2044.72,841.28s78.86,78.1,83.29,108.8-36,79.69-36,79.69Z" transform="translate(-153.9 -137.59)"/><path class="cls-18" d="M2030.65,847.37l-29.05,19.92-42.73-7.06c.52-3.45,3-17.75,5.33-30.7.14-.76.27-1.53.4-2.27,2-11,3.67-20.49,3.67-20.49l39.39-18.36,14.69-6.85c0,.24-.9,12.21-1,14C2019.19,826.55,2030.65,847.37,2030.65,847.37Z" transform="translate(-153.9 -137.59)"/><path class="cls-25" d="M1969.33,838.89c.82-.37,51-16.29,56.46-14.59s9,12.23,9,12.23l-82.1,20.34S1958.89,843.54,1969.33,838.89Z" transform="translate(-153.9 -137.59)"/><path class="cls-21" d="M2105.55,1085.87h0c-.06,13.67-5,6.34-6.16,12.47-7.75,39.17-154,32.53-162.9,8.75-3.69-9.92-9.15-.34-9.62-16.31-1.16-38.43,4.43-87.53,4.16-114.41-.2-18.36,1.94-37.18,5-54.29a439.38,439.38,0,0,1,16.71-65.2s69-23.91,82.11-20.35C2087.92,851,2105.87,1012.22,2105.55,1085.87Z" transform="translate(-153.9 -137.59)"/><path class="cls-21" d="M1986.78,966.67c-2.58-6.25-10.42-4.92-19.47-.58v0c-15.52,7.43-34.55,23.8-36.55,26.17-7.38,8.77,32.22,65.53,32.22,65.53-.54,15.4-15.58,22.55-25,22.75s-65.17-58.51-71.52-75.65,14.3-53.16,45.79-101.7a153.4,153.4,0,0,1,26-30.65c24.15-21.77,46.14-26.36,46.14-26.36S1998.38,994.74,1986.78,966.67Z" transform="translate(-153.9 -137.59)"/><path class="cls-26" d="M2018.36,796.12c-8.42,15-40.69,28.43-54.16,33.41.14-.76.27-1.53.4-2.27,2-11,3.67-20.49,3.67-20.49l39.39-18.36C2016.45,788.11,2021.84,790,2018.36,796.12Z" transform="translate(-153.9 -137.59)"/><path class="cls-18" d="M1953.23,804.66s64.45,18.66,75.45-21.66,26.73-65-14-78.67-52.91-.42-59.86,12.14S1936.75,798.77,1953.23,804.66Z" transform="translate(-153.9 -137.59)"/><path class="cls-20" d="M1957.31,712.56s5,46.54,14.64,44.32,18.32-3.91,17.2,10.18-14.16,30.59,15.61,32.46,70.91-75.64,62.45-90C2042.79,668.15,1922.21,662.18,1957.31,712.56Z" transform="translate(-153.9 -137.59)"/><path class="cls-25" d="M2105.11,1058.9c7.25,37.46-5.74,39.44-5.74,39.44s-154,32.53-162.9,8.75c0,0-13.2-.4-9.88-27.66C2002.47,1097.81,2084.39,1077.22,2105.11,1058.9Z" transform="translate(-153.9 -137.59)"/><path class="cls-15" d="M1934.19,1122.61l2.28-15.52s78.51,14.19,162.9-8.75l3.32,15.08S2053.94,1140.55,1934.19,1122.61Z" transform="translate(-153.9 -137.59)"/><path class="cls-18" d="M1942.21,1069.09s3,6.76-2.9,11.45-9.62,12.19-8.13,17.57,14.78,14,19.31,12.43,13.63-8.84,12.57-11.67,5.72-25.19-5.55-33.51S1942.21,1069.09,1942.21,1069.09Z" transform="translate(-153.9 -137.59)"/><path class="cls-25" d="M1971.2,942.89a49.64,49.64,0,0,1-20.72,34.92c-9.1,6.39-17.67,12-18.69,13.25-7.38,8.78,31.19,66.75,31.19,66.75-.54,15.4-15.58,22.55-25,22.75s-65.17-58.51-71.52-75.65,14.3-53.16,45.79-101.7a153.4,153.4,0,0,1,26-30.65l4.3-1.43S1979.3,873,1971.2,942.89Z" transform="translate(-153.9 -137.59)"/><path class="cls-10" d="M2046.53,1572.57c-8,61.23-20,115.16-20,115.16l-19.47,7.52-20.68-12.37s-1.38-32.34-12.29-112.88C1992.74,1573,2023.42,1576.62,2046.53,1572.57Z" transform="translate(-153.9 -137.59)"/><path class="cls-20" d="M2026.51,1687.73s-1.8,43.44-10.18,44.23c-1.11.11-42.57,1-42.57,1l-52.93.79s.09-12.76,15.5-15.77,41.08-14.42,50-35.06c0,0,12.33,5.08,16.85,5.64A74.84,74.84,0,0,0,2026.51,1687.73Z" transform="translate(-153.9 -137.59)"/><path class="cls-10" d="M2144.37,1685.3l-22.32,7.23-17.83-12.09s-12.1-33.85-42.6-120.29c12.15-1,37.26-4.55,75.71-18.64C2144.4,1613.33,2144.37,1685.3,2144.37,1685.3Z" transform="translate(-153.9 -137.59)"/><path class="cls-20" d="M2144.38,1685.3s-1.8,43.44-10.18,44.24c-1.11.1-42.57,1-42.57,1l-52.93.78s.09-12.76,15.5-15.77,41.08-14.42,50-35.06c0,0,12.09,5.72,16.85,6.53C2132.05,1688.83,2144.38,1685.3,2144.38,1685.3Z" transform="translate(-153.9 -137.59)"/><path class="cls-18" d="M1564.79,840.08c-.83-2.59-7-26.56-4.53-30.88s11.7-17.86,24.22-16.16,12.92,3.78,11.39,7.46-17.52,18.21-16.55,20.63,4.31,7.68,4.46,11.11-2.44,7.06-2.44,7.06Z" transform="translate(-153.9 -137.59)"/><path class="cls-4" d="M1687.15,892.07c-3.53,4.11-17.57,18.44-34.05,30.82-14.73,11.09-31.42,20.62-44.32,19.94a18.52,18.52,0,0,1-10.45-3.6c-4-3-3.47-9.9,0-18.84,3.88-10.14,11.45-22.94,20.12-35.88,20-29.79,45.75-60.25,45.75-60.25C1696,828.8,1694.79,883.18,1687.15,892.07Z" transform="translate(-153.9 -137.59)"/><path class="cls-4" d="M1608.78,942.83a25.59,25.59,0,0,1-4.43-.2c-11.4-1.51-23.4-31.83-32-59.32v0c-7.08-22.63-11.86-43.32-12.09-44.47a28.54,28.54,0,0,1,12.09-2.41,63.56,63.56,0,0,1,13.79,1.2s18,25.48,32.27,46.91c8.1,12.15,15,23,16.73,27.18l0,.1C1639.54,922.54,1627.1,942.22,1608.78,942.83Z" transform="translate(-153.9 -137.59)"/><path class="cls-18" d="M1880.86,1411.62l-22.43,15.51s-30.93-45.6-58.42-86.79c-18.37-27.51-35.2-53-40.26-61.64-10.77-18.4-31.43-122.19-37.19-151.89-1-5-1.52-8-1.52-8l70.78-9.52c18.49,15.49,10.73,135.27,30.71,148,7.85,5,18.53,29.9,28.61,58.26C1866.72,1359.45,1880.86,1411.62,1880.86,1411.62Z" transform="translate(-153.9 -137.59)"/><path class="cls-12" d="M1706,754.24s.32,6.8-3.76,8.13,4.2,16,3.55,25.91-5,13.88-5,13.88,2.1-5.45.92-8.82c0,0,.19,7-4.93,10.55s-3.74,6.59-3.74,6.59-11.57-3.46-11.89-12.14a22.86,22.86,0,0,0-.1,5.55s-10-7.5-10.47-16.14,7.87-15.94,11.67-16.07,12.27-7.59,12-10.41S1706,754.24,1706,754.24Z" transform="translate(-153.9 -137.59)"/><path class="cls-27" d="M1674,705.67c6.73-10.22,33.46-4.5,59.69,12.78s42,39.57,35.32,49.79-33.46,4.51-59.69-12.77S1667.29,715.89,1674,705.67Z" transform="translate(-153.9 -137.59)"/><path class="cls-12" d="M1688.8,706.83,1736,778.39s5.4-10.56,11.39-6.77c9.34,5.9,29.41-14.31,25.23-42.84-.28-1.86-.61-3.64-1-5.32-9.41-13.56-19.86-28.65-27.36-39.27C1722.59,671.11,1688.8,706.83,1688.8,706.83Z" transform="translate(-153.9 -137.59)"/><path class="cls-18" d="M1668.07,851.39a80.54,80.54,0,0,0,26.28,15.67c41.65,15.78,63.07-18.32,72.66-42.43a37.52,37.52,0,0,0-14-6.46c-3.06-.78-6.3-1.47-9-2-4.32-4.36-9.46-20.47-7.85-44.19l-2.1.27L1699,776.94s.09,11-.54,21.27c-.49,8-1.43,15.68-3.2,17.33-2.72.22-4.36.38-4.36.38l0,0A220.07,220.07,0,0,0,1668.07,851.39Z" transform="translate(-153.9 -137.59)"/><path class="cls-28" d="M1699,777s.09,11-.54,21.27c19.46.69,30.86-16.38,35.69-25.94Z" transform="translate(-153.9 -137.59)"/><path class="cls-18" d="M1691.85,786.28s45.91,3.68,47.77-24.94,9-47.44-20.21-51-35.65,7-38.59,16.4S1680,784.59,1691.85,786.28Z" transform="translate(-153.9 -137.59)"/><path class="cls-12" d="M1683.2,710.91c7.65-8.16,12.9-5.93,15.75-3.15,26-12.21,40.89,9.24,40.89,9.24a54.76,54.76,0,0,0,15.83,33.45s-8.71,4.64-27.71-1.56c-5.8-1.89-10.8-6.42-15-11.79a107.44,107.44,0,0,0,17,23.72c-22.39-12.14-29.61-44.81-30.32-48.26-3,2.34-8.85,7.46-10.87,12.72-2.76,7.14-4.75,22.09-9.09,21.3C1679.75,746.58,1671.72,723.14,1683.2,710.91Z" transform="translate(-153.9 -137.59)"/><path class="cls-5" d="M1773.56,742.87s21.35-42.5-8.49-59.3-51.68-10.21-68.09,10.34Z" transform="translate(-153.9 -137.59)"/><path class="cls-14" d="M1677.31,734.77a40.82,40.82,0,0,1,.7-13.93c-2.12-4.46-2.5-8.32-.78-11.09,2-3.21,6.56-4.51,12.75-4.1,10.63.68,26.07,6.38,41.6,16.07,20.22,12.61,34.3,28,35.63,38a8.12,8.12,0,0,1-1,5.57c-1.29,2.07-3.66,3.36-6.85,3.88-4.33,3.44-8.82,4.5-12,2.47s-6.12,0-8.24,2.28c26.13,10.76,47.81,12.42,54,2.53,5.56-8.92-2.82-25-20-41.78A204.87,204.87,0,0,0,1738.69,708a213.73,213.73,0,0,0-31.78-16.43c-25.93-10.63-47.42-12.21-53.56-2.37C1647.37,698.82,1657.49,716.67,1677.31,734.77Z" transform="translate(-153.9 -137.59)"/><path class="cls-29" d="M1706,770.28s-6.85,4.15-11.72,3.67-7.44-6.3-7.44-6.3A40.44,40.44,0,0,1,1706,770.28Z" transform="translate(-153.9 -137.59)"/><path class="cls-4" d="M1787,888.63s-.19,22.68-1.4,43.22c-.81,13.61-2.06,26.3-4,30.81-4.91,11.31-10.44,13.15-10.44,13.15l-42.78,10.49-15,3.68-47.43-14.17s-21.61-60.3-12.93-94.25,10.86-57.12,10.86-57.12,48.88-17.84,100.17-3.61Z" transform="translate(-153.9 -137.59)"/><path class="cls-18" d="M1734,1253.22c11.87,27.13,13.24,78.21,10,123.66-3.09,43.66-7.13,82.48-7.13,82.48l-31.08,6.44s-4-38-10.72-89.53c-4.93-38-11.3-83.4-18.5-126.43-1.76-10.48-3.4-21-4.93-31.41-10.67-72.44-15.9-139.69-15.32-149.5,1.18-19.46,8.17-59.8,11.15-76.5.84-4.65,1.37-7.47,1.37-7.47h63.56a65.16,65.16,0,0,1,4.11,5.06,123.78,123.78,0,0,1,21.06,46S1729.19,1242.17,1734,1253.22Z" transform="translate(-153.9 -137.59)"/><path class="cls-5" d="M1757.65,1036l-13.82,170.14v.07l-.55,6.7-.06.74c-40.66,11.51-61.57,8.55-71.5,4.75-5.86-2.22-7.89-4.75-7.89-4.75s-10.7-127.94-10.7-155.19,13.43-66,13.43-66l1,0,69-2.41A123.78,123.78,0,0,1,1757.65,1036Z" transform="translate(-153.9 -137.59)"/><path class="cls-14" d="M1681.13,989.24l-7.65,69.25,58.13,170.76s48,.6,86.7-15.57c0,0-4.82-143.41-14.12-165.62s-30.68-58.1-30.68-58.1Z" transform="translate(-153.9 -137.59)"/><path class="cls-19" d="M1665.16,973.68s9.43,7.46,28.17,7.84c22.37.45,77.82-5.71,77.82-5.71a45.55,45.55,0,0,1,2.36,14.15s-67.72,17.08-107,2.5C1666.56,992.46,1661.5,982.94,1665.16,973.68Z" transform="translate(-153.9 -137.59)"/><path class="cls-10" d="M1688,1000.8c-5.63,0-10.21-5.18-10.21-11.56s4.58-11.55,10.21-11.55,10.21,5.18,10.21,11.55S1693.59,1000.8,1688,1000.8Zm0-19.73c-3.77,0-6.83,3.67-6.83,8.17s3.06,8.17,6.83,8.17,6.82-3.66,6.82-8.17S1691.72,981.07,1688,981.07Z" transform="translate(-153.9 -137.59)"/><path class="cls-10" d="M1744.08,1376.88c-3.09,43.66-7.13,82.48-7.13,82.48l-31.08,6.44s-4-38-10.72-89.53C1695.64,1376.44,1719.33,1384.72,1744.08,1376.88Z" transform="translate(-153.9 -137.59)"/><path class="cls-19" d="M1734.29,1494.47l-81.48-.17s0-9.41,13.1-11.5c12.2-2,33-8.75,38.93-23.5,8.3,2.76,19.15,3.56,32.16-1.65C1737.78,1473.66,1737.93,1492.68,1734.29,1494.47Z" transform="translate(-153.9 -137.59)"/><path class="cls-21" d="M1710.9,815.78s21.13-7,27.55-18.2c0,0,14.23,10.42,19.31,21.86,0,0-17.25,22-43.23,25.25Z" transform="translate(-153.9 -137.59)"/><path class="cls-21" d="M1697.79,806.72s6.75,7.22,13.11,9.06l-9.67,28s-16.4-4.64-17.8-22.18C1683.29,819.8,1695,807.25,1697.79,806.72Z" transform="translate(-153.9 -137.59)"/><path class="cls-12" d="M1767.21,759.7s.32,6.79-3.76,8.12,4.2,16,3.56,25.91-5,13.89-5,13.89,2.11-5.45.93-8.82c0,0,.19,7-4.93,10.54s-3.74,6.6-3.74,6.6-11.57-3.47-11.9-12.14a23,23,0,0,0-.09,5.54s-10-7.5-10.47-16.14,7.86-15.94,11.66-16.07,12.28-7.59,12-10.41S1767.21,759.7,1767.21,759.7Z" transform="translate(-153.9 -137.59)"/><path class="cls-10" d="M1880.86,1411.62l-22.43,15.51s-30.93-45.6-58.42-86.79c0,0,33.41-8.09,51.13-24.72C1866.72,1359.45,1880.86,1411.62,1880.86,1411.62Z" transform="translate(-153.9 -137.59)"/><path class="cls-19" d="M1882.39,1416.67a13.9,13.9,0,0,0,4.48,6.84c5.24,4.32,14.78,13.48,12.48,21.14-3.14,10.43-17.65,17.38-19.61,30.12s-9.81,19.7-16.87,19.7h-33.66s-5.2-9,7.35-11.67,17.29-17.68,16.5-31.59-1.39-34-1.39-34l28.11-9.47Z" transform="translate(-153.9 -137.59)"/><path class="cls-12" d="M1602.12,899.59l-.82,0c-23.27-1.57-28.74-68.85-29-71.71l2.9-.23c1.45,18.81,9,67.88,26.26,69a9.68,9.68,0,0,0,7.28-2.75c14.33-12.65,17.3-62.09,17.33-62.58l2.9.16c-.12,2.08-3.07,51.15-18.31,64.6A12.74,12.74,0,0,1,1602.12,899.59Z" transform="translate(-153.9 -137.59)"/><rect class="cls-30" x="1397.13" y="667.28" width="65.52" height="26.53"/><path class="cls-31" d="M1558.29,818.14c0,7.33-3.26,13.27-7.27,13.27s-7.26-5.94-7.26-13.27,3.25-13.26,7.26-13.26S1558.29,810.82,1558.29,818.14Z" transform="translate(-153.9 -137.59)"/><path class="cls-14" d="M1556.28,818.14c0,5.3-2.36,9.59-5.26,9.59s-5.25-4.29-5.25-9.59,2.35-9.59,5.25-9.59S1556.28,812.85,1556.28,818.14Z" transform="translate(-153.9 -137.59)"/><rect class="cls-12" x="1437.15" y="667.28" width="49.65" height="26.53"/><path class="cls-30" d="M1629,804.88h-66.24S1588.79,785.16,1629,804.88Z" transform="translate(-153.9 -137.59)"/><path class="cls-30" d="M1603.75,804.88h-19.27A65.88,65.88,0,0,1,1603.75,804.88Z" transform="translate(-153.9 -137.59)"/><path class="cls-31" d="M1595.87,818.14c0,7.33-3.26,13.27-7.27,13.27s-7.26-5.94-7.26-13.27,3.25-13.26,7.26-13.26S1595.87,810.82,1595.87,818.14Z" transform="translate(-153.9 -137.59)"/><path class="cls-12" d="M1647.24,818.14c0,7.33-3.26,13.27-7.27,13.27s-7.27-5.94-7.27-13.27,3.26-13.26,7.27-13.26S1647.24,810.82,1647.24,818.14Z" transform="translate(-153.9 -137.59)"/><path class="cls-14" d="M1604.73,831.42a.36.36,0,1,1,0-.72c3.81,0,6.9-5.79,6.9-12.91s-3.09-12.9-6.9-12.9a.36.36,0,0,1-.36-.36.37.37,0,0,1,.36-.37c4.21,0,7.63,6.12,7.63,13.63S1608.94,831.42,1604.73,831.42Z" transform="translate(-153.9 -137.59)"/><path class="cls-14" d="M1561.29,831.42a.36.36,0,1,1,0-.72c3.8,0,6.9-5.79,6.9-12.91s-3.1-12.9-6.9-12.9a.37.37,0,0,1-.37-.36.38.38,0,0,1,.37-.37c4.2,0,7.63,6.12,7.63,13.63S1565.49,831.42,1561.29,831.42Z" transform="translate(-153.9 -137.59)"/><path class="cls-14" d="M1593.86,818.14c0,5.3-2.36,9.59-5.26,9.59s-5.25-4.29-5.25-9.59,2.35-9.59,5.25-9.59S1593.86,812.85,1593.86,818.14Z" transform="translate(-153.9 -137.59)"/><path class="cls-18" d="M1651.14,832.24s-.79-28.52-8.33-31.74-25.51-2.47-26.94,0,12.69,10.71,13.14,13.61-3.32,9.87-1.66,13.62,11.16,12.35,11.16,12.35Z" transform="translate(-153.9 -137.59)"/><path class="cls-18" d="M1650.81,826.5s3.46-13.79,4.91-17a4.27,4.27,0,0,0-4.13.6,9.38,9.38,0,0,0-3.85,7.71C1647.83,821.71,1650.81,826.5,1650.81,826.5Z" transform="translate(-153.9 -137.59)"/><path class="cls-21" d="M1644.55,863.61s22.84,76.91,61.46,88.12,68.61-50.6,68.61-50.6l14-33.2-76,40.57Z" transform="translate(-153.9 -137.59)"/><path class="cls-4" d="M1764,820.83s-85.07,100.52-65.83,115c24.47,18.37,81.18-38.28,88.83-47.16S1795.85,825.37,1764,820.83Z" transform="translate(-153.9 -137.59)"/><path class="cls-4" d="M1636.47,841.34c-.41,15.16,49.45,99.19,70.3,97.25s30.43-26.81,23.14-37-78.77-69.33-78.77-69.33a58.24,58.24,0,0,0-8.06,3.46C1640.13,837.28,1636.47,841.34,1636.47,841.34Z" transform="translate(-153.9 -137.59)"/><path class="cls-21" d="M1653.13,922.86l0,0c-14.73,11.09-31.42,20.62-44.32,19.94a25.59,25.59,0,0,1-4.43-.2c-11.4-1.51-23.4-31.83-32-59.32v0s13.21,26.68,25.94,37.11c3.48,2.88,6.94,4.51,10.07,4,7.19-1.07,17.87-7,26.82-12.64,9.19-5.81,16.56-11.41,16.56-11.41Z" transform="translate(-153.9 -137.59)"/><path class="cls-6" d="M1450.58,1845.7c-349-9.1-650.33-77.34-874.45-193.17,39.63-16.44,184.63-69.69,328-35.51,168.16,40.09,139,124,243.27,114.26C1251.3,1721.6,1421.91,1744.76,1450.58,1845.7Z" transform="translate(-153.9 -137.59)"/><path class="cls-6" d="M906.94,1633.29s19.61-82.68,43.44-82.68-21.72,93.89-21.72,93.89Z" transform="translate(-153.9 -137.59)"/><path class="cls-6" d="M948,1636.56s40.94-51.85,65.31-39-56.08,51.15-56.08,51.15Z" transform="translate(-153.9 -137.59)"/><path class="cls-6" d="M1354.42,1787.9c0-4.67-2.8-73.8,30.83-77.54S1354.42,1787.9,1354.42,1787.9Z" transform="translate(-153.9 -137.59)"/><path class="cls-6" d="M1378.71,1787.9s18.69-33.63,35.5-30.83S1378.71,1787.9,1378.71,1787.9Z" transform="translate(-153.9 -137.59)"/><path class="cls-6" d="M1342.28,1772.4c2.8-13.46,13.08-107.82-7.48-106S1342.28,1772.4,1342.28,1772.4Z" transform="translate(-153.9 -137.59)"/><path class="cls-32" d="M1199.79,1581.94s34.46-25.73,69.79-21.52,42.8,7.51,71.76,10.53,45.78-.65,43,11S1175.51,1595.43,1199.79,1581.94Z" transform="translate(-153.9 -137.59)"/><path class="cls-32" d="M1252.42,1575.43c-1.55-4.42-25.52-64-10.82-71.69s19.32,64.77,19.32,64.77Z" transform="translate(-153.9 -137.59)"/><path class="cls-32" d="M1264.62,1577.93s10.66-55.08,32-53.3S1264.62,1577.93,1264.62,1577.93Z" transform="translate(-153.9 -137.59)"/></svg>